<?xml version="1.0" encoding="utf-8"?>
<!-- Generator: Adobe Illustrator 22.1.0, SVG Export Plug-In . SVG Version: 6.00 Build 0)  -->
<svg version="1.1" id="Layer_1" xmlns="http://www.w3.org/2000/svg" xmlns:xlink="http://www.w3.org/1999/xlink" x="0px" y="0px"
	 viewBox="0 0 101 54" style="enable-background:new 0 0 101 54;" xml:space="preserve">
<style type="text/css">
	.st0{fill:#FFFFFF;stroke:#84C318;stroke-miterlimit:10;}
</style>
<title>noun_link_15341</title>
<g>
	<path class="st0" d="M21,41.5h11c-0.7-1.9-1.1-4-1.3-6h-8.5c-8-0.2-14.3-6.9-14.1-14.8c0.2-7.7,6.4-13.9,14.1-14.1h21.9
		c8,0,14.4,6.5,14.4,14.5c0,6.3-4.1,11.9-10.1,13.8c1,1.9,2.3,3.7,3.8,5.3c10.6-4,15.9-15.8,11.9-26.4c-3-7.9-10.5-13.2-19-13.2H21
		C9.7,0.5,0.5,9.7,0.5,21S9.7,41.5,21,41.5L21,41.5z"/>
	<path class="st0" d="M35.4,33c0,11.3,9.2,20.5,20.5,20.5l0,0H80c11.3,0,20.5-9.2,20.5-20.5S91.3,12.5,80,12.5l0,0H68.9
		c0.7,1.9,1.1,4,1.3,6H79c8,0.2,14.3,6.9,14.1,14.8C92.8,41,86.7,47.2,79,47.4H57.1c-8-0.1-14.3-6.7-14.2-14.7
		C43,26.4,47.2,21,53.2,19.1c-0.4-2.2-1.6-4.2-3.4-5.6C41.2,16.2,35.4,24.1,35.4,33z"/>
</g>
</svg>
