<svg id="Layer_1" data-name="Layer 1" xmlns="http://www.w3.org/2000/svg" width="1497.35" height="61.91" viewBox="0 0 1497.35 61.91">
  <defs>
    <style>
      .cls-1 {
        fill: #84C318;
      }

      .cls-2 {
        fill: #fbd600;
      }
    </style>
  </defs>
  <title>Untitled-2</title>
  <g>
    <path class="cls-1" d="M391.87,951.72c1.36.24,2.71.54,4.05.91a40.33,40.33,0,0,0-4-1.16,44.47,44.47,0,0,0-9.76-1.16,55,55,0,0,0-19.39,3.55,70.73,70.73,0,0,0-9.08,4.06c-1.47.78-2.92,1.62-4.31,2.49-.73.45-1.44.91-2.1,1.37s-1.39,1-2.08,1.49a1.67,1.67,0,0,0-.29,2.33,1.72,1.72,0,0,0,.72.53,1.64,1.64,0,0,0,1.61-.24l.07-.06,0,0c.46-.41,1-.9,1.79-1.47s1.25-1,1.91-1.43c1.29-.91,2.63-1.81,4-2.65a69.77,69.77,0,0,1,8.5-4.46,53.76,53.76,0,0,1,18.64-4.62A43.32,43.32,0,0,1,391.87,951.72Z" transform="translate(0.47 -939.74)"/>
    <path class="cls-1" d="M382.18,949.52a44.72,44.72,0,0,1,9.93,1.19,43.06,43.06,0,0,1,5.46,1.68,40.6,40.6,0,0,1,3.88,1.69A52.89,52.89,0,0,1,417,966a52.34,52.34,0,0,0-16-10.84c-.44-.19-.89-.37-1.34-.54A42.1,42.1,0,0,0,382.23,952a53,53,0,0,0-18,4.38c1.5,1.89,5.46,5.31,14.12,4.47,5.18-.5,11.52.38,17.57,2.1a18.85,18.85,0,0,0-1.68-2.1,17.38,17.38,0,0,0-2.45-2.16,13.28,13.28,0,0,0-2.91-1.61,9.59,9.59,0,0,1,3.25,1,13.29,13.29,0,0,1,2.85,2,16.15,16.15,0,0,1,2.89,3.44c2,.65,4,1.39,5.9,2.19a14.46,14.46,0,0,0-.71-1.42,13.13,13.13,0,0,0-2-2.69,9.52,9.52,0,0,1,2.51,2.31,13,13,0,0,1,1.48,2.39,32.38,32.38,0,0,1,9.52,6.18c6.5,6.71,9.62,14,15.22,9.68,0,0-1.43-16.84-11.17-27.46a15.32,15.32,0,0,0-3.12.91,6.52,6.52,0,0,1,1.31-1.15,7.85,7.85,0,0,1,1-.61,39.8,39.8,0,0,0-6.88-5.54,21.5,21.5,0,0,0-4.46-.46,18.2,18.2,0,0,0-3.19.29,15.6,15.6,0,0,0-3.19.92,7.14,7.14,0,0,1,1.3-1.15A10.92,10.92,0,0,1,403,947a13,13,0,0,1,3.39-1l.37-.05a45.4,45.4,0,0,0-14.93-4.22,20.58,20.58,0,0,0-3.35.94,17.83,17.83,0,0,0-2.9,1.37,15.06,15.06,0,0,0-2.68,2,7.1,7.1,0,0,1,.83-1.53,10.29,10.29,0,0,1,1.12-1.35,12.42,12.42,0,0,1,2-1.63,36.07,36.07,0,0,0-14.07,2.73c-.1.24-.19.49-.28.73a15.47,15.47,0,0,0-.76,3.24,7.06,7.06,0,0,1-.36-1.7,9.39,9.39,0,0,1,0-1.59c-3.7,1.92-6.35,4.57-7.37,7.75A55.41,55.41,0,0,1,382.18,949.52Z" transform="translate(0.47 -939.74)"/>
  </g>
  <path class="cls-2" d="M364.58,956.73c-4.31-1.45-8.57-2.9-13.56-2.23-11.42-4.36-20-1.58-34.17,4l9.19-6.34c-6.38.68-10.64,2.08-14.88,6.32,0-1.43,0-1.43-.75-2.16l-.65,3.56L306.88,957c1.17,3.48-.95,3.66-1.41,5.51,21.38-6.29,41.07-3.53,62.47,7.59a1,1,0,0,1,.5,1.35,1,1,0,0,1-1.36.41c-22.55-10.08-42.19-10.43-58-6.32,1.35,1.86,1.68,4.89,4.28,6.49l-1.45-4.31,5.74,5.74a43.14,43.14,0,0,1-2.91-8.57c5.74,7.19,10.05,11.5,18.62,14.41l-3.61-6.47c3.25,3.26,7.69,4.59,11.67,6.62a19.17,19.17,0,0,1-3.81-4.41c5.69,1.48,10,4.33,15.69,3,5.71,0,12.83,1.56,17.06-4.13,2.33-5.49-3.68-16.41-16.48-15.08C356,956.68,361,957.43,364.58,956.73Zm-23.13,22.73a5.05,5.05,0,0,0,1.21.6ZM367.54,971c-26.49-13.75-50-14.63-77.68-1.3l3.56.75C311.19,961.32,336.79,957.26,367.54,971Z" transform="translate(0.47 -939.74)"/>
  <path class="cls-2" d="M374.16,994.21c12.8,1.33,18.81-9.59,16.48-15.08-4.23-5.69-11.35-4.18-17.06-4.13-5.69-1.38-10,1.47-15.68,3a18.9,18.9,0,0,1,3.8-4.41c-4,2-8.41,3.36-11.67,6.62l3.61-6.47c-8.57,2.91-12.88,7.22-18.62,14.41a43.14,43.14,0,0,1,2.91-8.57l-5.74,5.74,1.45-4.31c-2.6,1.6-2.93,4.63-4.28,6.49,15.78,4.11,35.43,3.76,58-6.32a1,1,0,0,1,1.35.41,1,1,0,0,1-.5,1.35c-21.4,11.12-41.09,13.88-62.46,7.59.45,1.85,2.58,2,1.4,5.51l2.88-2.88.65,3.56c.73-.73.73-.73.75-2.16,4.24,4.24,8.5,5.64,14.89,6.32l-9.2-6.34c14.21,5.59,22.75,8.37,34.18,4,5,.67,9.24-.78,13.55-2.23C381.27,995.57,376.26,996.32,374.16,994.21Zm-11.25-21.27a5.24,5.24,0,0,0-1.21.6Zm-49.24,9.6-3.55.75c27.66,13.33,51.18,12.45,77.67-1.3C357,995.74,331.44,991.68,313.67,982.54Z" transform="translate(0.47 -939.74)"/>
  <path class="cls-1" d="M536.4,998c12.84.06,23.56-14.14,23.42-16.63-.09-1.47-5,.57-12.26-.72-.79.05-3.19,1.78-6,4.89a16.9,16.9,0,0,1,3.39-5.36c-8-1.93-13.59-5.13-21.28,1.56,2.08-2.45,2.19-5.47,6.17-7.4-8.12-3.91-18.38-10.48-27-4.71a31.57,31.57,0,0,0-5.62,5.1c-.15-.56,1.65-5,5.21-8.25-15.22,1.15-12.26,8.09-17.5,13.95-.56-3-4.25-4.75-4.25-4.75a7.08,7.08,0,0,1,1.54,5c-4.14-1.86-8.16,2.4-8.16,2.4,2.78-1.18,9.58.59,9.77,2.8,15.52-21.52,37.22.19,54.93,2.75C524.12,993,502,967.92,485,988.21c2.58,2.29,9.55,1,18.9,3.51,0-1.53-1.87-5.74-6.08-7.89,14.22,3.22,11.16,14.36,35.87,14.25a5.89,5.89,0,0,0-3.8-5.86A7.83,7.83,0,0,1,536.4,998Z" transform="translate(0.47 -939.74)"/>
  <path class="cls-2" d="M492.35,984.66a.71.71,0,0,0-.63-.29c-.78.11-4.08.71-5,.79-1.24.21-3.44.62-3.58.64s0,.24.08.25a26.3,26.3,0,0,0,3-.43c.32.34-3.82.82-3.82.82s-4.56.9-4.4.59c.68-.1,3.75-.71,4.42-.85a1,1,0,0,0,.41-.15c0-.11,0-.18-.14-.19-1.07.16-14.76,2.45-15.68,2.64a3,3,0,0,1-1.33-.17,1.46,1.46,0,0,0-.16-.19c-.1-.08-.25-.08-.3-.22s0-.31,0-.47c-.31-.18-.75-.22-.89-.62a2.63,2.63,0,0,1,.37-1.27s0,0,0-.06l0,0,0-.06a.5.5,0,0,1,.12-.13,2.85,2.85,0,0,1,1.9-1c-.28-.29-1.55-.23-2.43-.13-.53,0-1,.23-1.56.24a2.52,2.52,0,0,1,1.06-.53,5.39,5.39,0,0,1,2.18-.11,5.78,5.78,0,0,0-2-.18,7.17,7.17,0,0,0-3.23,1.1,7.27,7.27,0,0,0-2.41,2.43,3.81,3.81,0,0,0-.57,2.37,3.66,3.66,0,0,1-1-3,5,5,0,0,1,.09-1.29c.08-.43.14-.86.22-1.29,0-.19.08-.38.12-.56a21.1,21.1,0,0,1,.42-2.2,5.09,5.09,0,0,1,.92-2c-.25,0-.38.3-.51.51a11.31,11.31,0,0,0-1,3,2.07,2.07,0,0,1-.2.56,8.52,8.52,0,0,0,0-1.82,2.29,2.29,0,0,1,.41-1.71,2,2,0,0,1,.77-.46,1.62,1.62,0,0,0-1.27,1.16,24.24,24.24,0,0,0-.16,2.55c-.09,1.31-.29.66-.57,1.93a10.48,10.48,0,0,0-.4,3.1,4.91,4.91,0,0,0,.47,1.48,7.36,7.36,0,0,1-2.53-2.25,14.35,14.35,0,0,0-2.33-2.69,25.88,25.88,0,0,0-3-1.87c-.59-.34-1.21-.61-1.79-1-.83-.43-1.58-1-2.44-1.4A41.21,41.21,0,0,0,439.5,978c-.95-.28-1.84-.74-2.81-1-1.48-.42-2.75-1.39-4.27-1.69a10.18,10.18,0,0,0-2.24-.37,6.31,6.31,0,0,1,3.74,1.94,13.22,13.22,0,0,1,3,4.52,38.26,38.26,0,0,1,1.36,4.21c-.35-.43-.62-.94-1-1.34-.75-.8-1.41-1.71-2.11-2.58a26.32,26.32,0,0,0-4.25-4.38c-.68-.58-1.39-1.12-2.09-1.68a8.09,8.09,0,0,0-1.38-1.11c-.73-.45-1.45-.9-2.2-1.3a11.47,11.47,0,0,0-2.56-.91,3.24,3.24,0,0,1-1.57-.78c-.65-.74-1.68-1.08-2.11-2a10.86,10.86,0,0,0-1.85-2.87,20.41,20.41,0,0,1,1.12,5,5.68,5.68,0,0,0,.48,1.63c.28.89.62,1.74.91,2.63a14.26,14.26,0,0,1-.56-1.41,19.15,19.15,0,0,0-1.39-2.84,11.21,11.21,0,0,0-2-2.46,22.15,22.15,0,0,1,2.36,3.89,3.88,3.88,0,0,1,.5,1.12,9.46,9.46,0,0,1-.57-.92,15.59,15.59,0,0,0-1.75-2.29c-.77-.86-1.83,1.28-2.64.5a3.34,3.34,0,0,0-1.52-.92,6.83,6.83,0,0,1-1.3-.43c-.52-.14-.86-.67-1.4-.75a1.15,1.15,0,0,1-.21.33,2.69,2.69,0,0,1-1.17-.46c-.67-.23-4.42-1.21-5.45-1.75-.32-.21-.71-.06-1.06-.06s-.93-.23-1.42-.24a15.56,15.56,0,0,1-3-.44,7,7,0,0,1,1.91,1.86,8.23,8.23,0,0,1,1.48,2.15,29.35,29.35,0,0,1,1.36,5.11.61.61,0,0,1,0,.14,5.41,5.41,0,0,0-.45-1.24,13.35,13.35,0,0,0-1.29-2.49,18.44,18.44,0,0,0-1.79-2.46c-.77-.79-1.72-1.27-2.57-2a3.2,3.2,0,0,0-2.25-.93,4.69,4.69,0,0,1,2.52,3,15.51,15.51,0,0,0-1.73-.74c-.4-.18-1.83-.5-5.24-3.22-.26.07,1.87,2,2.89,3A49.49,49.49,0,0,1,379.85,960c7.31,13.59,11.71,13.11,11.71,13.11l-2.1.46c1.09,1,2.39,2.18,3.78,3.35,0,0,0,0,0,.06a12,12,0,0,0,1,1.21c.73.73,1.28,1.65,2.08,2.32a12.93,12.93,0,0,1,1.19,1.26c.2.18.07.54.28.71.38.36.84.61,1.21,1a28.32,28.32,0,0,0,2.33,1.75c.94.47,1.7,1.25,2.61,1.78a14.19,14.19,0,0,1,1.67.9,3.18,3.18,0,0,0,1.37.66c.32,0,.51.29.78.43s.42.06.63.11c.49.31,1,.59,1.53.85a6.93,6.93,0,0,1,1.16.33l-.51.23a10,10,0,0,1,1.34.18c.13.14.23.31.37.45.32.11.67.1,1,.24.75.18,1.54.22,2.29.41-.63.35-1.34,0-2,.13.22,0,.45,0,.67.08s.13.27.25.33c.27.08.55.08.82.16s.34.27.54.37c.41.1.86.09,1.26.23a7.86,7.86,0,0,0,2.46.55,17.87,17.87,0,0,0,2.74.5,3.44,3.44,0,0,1,1.88.28c.52.18,1,.5,1.51.63a11.38,11.38,0,0,0,1.15.29,9.94,9.94,0,0,1,1.79.35,7.32,7.32,0,0,1,1.46.32c.53.13,1.09.15,1.64.27a2.63,2.63,0,0,0,1.07.22,5.58,5.58,0,0,1,1.29.11c1,0,1.93,0,2.88.08a5.37,5.37,0,0,1,1.39.1c1.68,0,3.36.12,5,0a10.16,10.16,0,0,0,3.27-.91,6.83,6.83,0,0,1,1.06-.41,16.31,16.31,0,0,0,1.65-.67,9.62,9.62,0,0,0-.26,2.13,3.9,3.9,0,0,1-.5,2l.26-.17a10.87,10.87,0,0,0-.32,1.95,15.24,15.24,0,0,0,1.27-3.16,4.67,4.67,0,0,0-.07,2c.7-.87.75-2.21,1.68-2.9s1.77-1.05,2.61-1.67c0,.3,0,.61,0,.91.07-.13.14-.26.2-.39,0,.45,0,.9,0,1.35a5.16,5.16,0,0,0,.56,1.3c0-.41-.28-.77-.19-1.18s-.09-.69,0-1,.31-.39.48-.57a1.61,1.61,0,0,0,.2,1.26c.16-.09.21-.3.3-.46a4.29,4.29,0,0,1,1.26-1.8c.61-.4,1.21-.82,1.81-1.23-.41,1.27-1.63,2-2.24,3.11.36-.27.72-.55,1.09-.81a7.93,7.93,0,0,1,1.36-.42c.06.14.06.39.26.39s.39-.09.55-.24a4.56,4.56,0,0,1,.59-.42,2.69,2.69,0,0,1,.62-.34,2.85,2.85,0,0,1,.39-.11l.19-.06c.09,0,.19,0,.28,0a2.46,2.46,0,0,0,0,.28,2.58,2.58,0,0,0,0,.48c0,.22,0,.42.08.63a1.18,1.18,0,0,0,.07.2.29.29,0,0,1,0,.09,1.55,1.55,0,0,1,.14-.51,2,2,0,0,1,.24-.46c.09-.13.22-.22.31-.35s.16-.27.29-.26.14.07.2.13a1,1,0,0,0,.19.16,3.33,3.33,0,0,1,1.35-1.12c.37-.14.65-.45,1-.62a3.82,3.82,0,0,0,1.39,0c-.07.25-.37.49-.53.69a6.85,6.85,0,0,0-.71,1.72,13.51,13.51,0,0,1,1.13-1.91,3.86,3.86,0,0,1,1.59-.7,3.24,3.24,0,0,0,1.65-1.06c.27-.29.51-.7.93-.75,1.13-.21,2.26-.38,3.36-.7,1.34-.39,5.58-1.44,6.34-1.6.48-.1.95-.16,1.43-.3s3.55-.7,4.54-.87c.38-.07,3.48-.78,3.92-.85a2.18,2.18,0,0,0,1.53-.65,1.52,1.52,0,0,0,.28-.7A.71.71,0,0,0,492.35,984.66Zm-39.67,6.67-2,0-2.18,0c-1.88,0-3.22-.11-5.09-.27-2.26-.18-4.83-.42-7.07-.73-.76-.11-1.52-.23-2.28-.37-2.86-.52-5.7-1.17-8.5-1.95a81,81,0,0,1-8.41-2.76c-3-1.19-6-2.31-8.93-3.54-.86-.35-1.72-.71-2.57-1.09a88.77,88.77,0,0,1-8.09-4.08c-.6-.34-1.2-.68-1.8-1,3.58,1.87,7.23,3.54,10.92,5.1,3,1.27,6.05,2.41,9.11,3.5,4.13,1.46,8.28,2.82,12.51,3.89a98.64,98.64,0,0,0,13.12,2.29c1.27.15,2.54.27,3.81.38,2.66.22,4.9.36,7.56.53l4.89.32Zm8.21-4.4a2.92,2.92,0,0,0-.64,1.69,2.74,2.74,0,0,1,0-1.5,3.06,3.06,0,0,1,2.63-2A3.94,3.94,0,0,0,460.89,986.93Z" transform="translate(0.47 -939.74)"/>
  <g>
    <path class="cls-1" d="M263.76,958.61s0,0,0-.05Z" transform="translate(0.47 -939.74)"/>
    <path class="cls-1" d="M255.71,966.1c2.44,8.17,11,11.15,20.65,10.68a21.78,21.78,0,0,1-11.1-9l-.2-.08c-3-1-5.53-4.83-5.44-4.83l.52.5a22.38,22.38,0,0,0,2.39,2.17,7.24,7.24,0,0,0,1.28.84c.63.28.82,0,1.11-.49.12-.21.33-.2.55-.14.4.11.85.3,1,0a.77.77,0,0,0,.09-.38.71.71,0,0,1-.13.35c-.17.21-.55,0-1-.14a.61.61,0,0,0-.76.16c-.13.23-.24.4-.45.36-1.77-1-.47-.91-.68-1.39a8,8,0,0,0,3.34-.47,3.9,3.9,0,0,1,1.69,0,3.55,3.55,0,0,0-1.72-.1c-.91.1-2.19.66-3.46.28a5.71,5.71,0,0,1-2.17-1.51,3.51,3.51,0,0,0-1.62-1.2,2.42,2.42,0,0,1,1.47.77,3.38,3.38,0,0,0,1.78,1l.17,0h0a5.77,5.77,0,0,0-.9-.51,1.15,1.15,0,0,1-.62-.59,1.6,1.6,0,0,0,.61.39,3,3,0,0,1,.77.28,0,0,0,0,0,0,0,6.7,6.7,0,0,0,2,.57,2,2,0,0,0,1.13-.2,2.06,2.06,0,0,1-1.11.05,8.84,8.84,0,0,1-2.16-.8.76.76,0,0,0,0-.11,2.82,2.82,0,0,0,2.29.52,2.45,2.45,0,0,0,1-.51,2.8,2.8,0,0,1-1,.37,2.65,2.65,0,0,1-1.56-.29,2.34,2.34,0,0,1-.76-.52c-.17-.18-.17-.44-.31-.62a3.11,3.11,0,0,0,.43.5,1.93,1.93,0,0,0,.65.42,2.45,2.45,0,0,1-.55-.52,1.69,1.69,0,0,1-.21-.31,6.54,6.54,0,0,0-.45-.71c-.18-.23-.42-.21-.68-.23a1.18,1.18,0,0,1-.67-.28c-.47-.42-.64-1-.91-1.09,0,0,.2,0,.5.28s.56.67,1,.72a.76.76,0,0,1,.59.38s0,0,0-.07a1.12,1.12,0,0,0-.59-.56c-.6-.29-.52-.83-.86-1.08a1.93,1.93,0,0,0-.59-.3.93.93,0,0,1,.77.2,5.8,5.8,0,0,0,1,.85c.21.09.44.18.72.27a3.73,3.73,0,0,1,2.12,1,.6.6,0,0,1,0,.86.65.65,0,0,0,.16-1,3.4,3.4,0,0,0-2.16-1.19,7.87,7.87,0,0,1-.76-.28c.5,0,1.09-.13,1.76-.22a7,7,0,0,1,3.69.62c.39.29.71.57.76.83a.24.24,0,0,1-.29.17.26.26,0,0,0,.34-.17,1.9,1.9,0,0,0-.72-.94,6.27,6.27,0,0,0-3.81-.8c-.77.1-1.41.2-1.92.25a1.79,1.79,0,0,1-.76-.46,4.39,4.39,0,0,0,.65,0l.46-.1a2.24,2.24,0,0,1,1.72-.08,1,1,0,0,0-.43-.28,2.69,2.69,0,0,0-1.36.07l-.46.11v0a1.84,1.84,0,0,1-.82-.09c-.37-.1-.49,0-.49,0a.45.45,0,0,1,.45-.15.62.62,0,0,0,.63-.19c.09-.14-.07-.55,0-.61a2.5,2.5,0,0,1,.58-.43c.8-.34,1.8-.38,2.23-.94a1.54,1.54,0,0,0,.33-1,1.83,1.83,0,0,1-.43.87c-.43.45-1.33.39-2.26.78a2.39,2.39,0,0,0-.52.37c-.16-.73-.29-1.5-.42-2.28a28.14,28.14,0,0,1,2.48-5.07c.49-.8,1.3-2.1.9-3.06a5,5,0,0,0-.36-.63c-.58,1-1.16,2-1.75,3.07a29.65,29.65,0,0,0-2.5,6.22c-.29.47-.62,1-1,1.61a8.56,8.56,0,0,0-.08-1,3.12,3.12,0,0,1,.36-1.13.87.87,0,0,0,.29-.1.82.82,0,0,1-.26.05,3.81,3.81,0,0,0,.36-1,1,1,0,0,0-.22-.94,1,1,0,0,1,.08.9,5,5,0,0,1-.52,1l-.47,0a1.19,1.19,0,0,0-.9.74,1.68,1.68,0,0,0,.23,1.42.75.75,0,0,0,.07.12,1.68,1.68,0,0,0-.33.26c-.41.4-.27,1.19,0,1.85l-.15,0c-.47.07-.78.55-.95,1.12a2.44,2.44,0,0,0-1.75,1.3c-.52,2.17-1.72,1.74-1.6,1.95,0,0,.19.08.63,0s.93-.86,1.24-1.77A2.38,2.38,0,0,1,256,960.5a4.17,4.17,0,0,0-.08.49,4.24,4.24,0,0,1-.72,2c0,.06.53-.13.84-1.14v.18c0,.18,0,.37,0,.56a10.9,10.9,0,0,0-.34,1.74,5,5,0,0,1-2.42,1.49c-.61.28-.74.55-.72.56s.2-.15.8-.38a5.14,5.14,0,0,0,2.29-1.17A8.46,8.46,0,0,0,255.71,966.1Zm6.22-15.63,1.82-3,.21.32s-.09.11-1.81,2.92a21.07,21.07,0,0,0-1.56,3.19l0-.18-.29.43A28.56,28.56,0,0,1,261.93,950.47Zm-5,9.75-.26,0a1.28,1.28,0,0,1,.45-.4Zm.54-1.19,0,0,.05,0Zm.67-4.15.39-.07a3.18,3.18,0,0,0-.33,1c.08.66.11,1.14.12,1.5l-.27.52a2.27,2.27,0,0,0-.26-1c.06,0,.11-.06.1-.07s0,0-.12,0a.75.75,0,0,0-.07-.12A1.16,1.16,0,0,1,258.11,954.88Zm-.84,2.49a1.74,1.74,0,0,1,.24-.28c.38.77.26,1.3,0,1.57l-.14.18C257.13,958.26,257,957.71,257.27,957.37Zm-.21,1.92.15,0,.07.13c0,.11-.1.21-.14.32a1.48,1.48,0,0,0-.67.52l-.11,0A1.21,1.21,0,0,1,257.06,959.29Zm-.74,1.12h0a1.17,1.17,0,0,0-.05.11A.3.3,0,0,1,256.32,960.41Zm.22-.06h0a1,1,0,0,1,.29,0c-.21.51-.4,1-.57,1.55A3.26,3.26,0,0,1,256.54,960.35Z" transform="translate(0.47 -939.74)"/>
    <path class="cls-1" d="M309.63,980.45a23.83,23.83,0,0,0,.85-9.3c-.14-1.37-.23-3.93-1.65-4.7s-4,.8-5.14,1.7a39.06,39.06,0,0,1-5.82,3.89,39.9,39.9,0,0,1-7.94,11.34s4.89-7,6.24-10.44a14.17,14.17,0,0,0-5.17,5.11c-1.41,2.55-1.81,4.53-4.2,6.44a10.07,10.07,0,0,0,2.67-4.66,10.88,10.88,0,0,1,3.85-5.28,29,29,0,0,1,2.79-1.58c-1.15.57-2.33,1.1-3.54,1.58-1.73.85-4.22,2.14-5.25,4.83-1.43,3.74-3.21,6.7-5.12,7.92a.41.41,0,0,1-.11.07,11.07,11.07,0,0,0,3.21-4.72c.92-2.77,1.43-5.27,3-6.58-13.76,4.22-29.36,2.94-32.64-8.75l.23,2.8c.64,4.21,2.88,8.55,5.06,12.16l0,0A28.52,28.52,0,0,0,264.2,985c10.33,7.69,23.31,5.7,30.22,1.75,7.41-3.91,9.38-9.22,9.43-9.07.13-.1-1.72,5.39-9.2,9.49-6.95,4.12-20.24,6.27-30.85-1.62-.44-.31-.85-.63-1.26-1a38.11,38.11,0,0,0,8.52,8c7.22,5,17.14,7.69,25.33,3.46A26.5,26.5,0,0,0,309,982.31a13,13,0,0,1-6.45,2.49A11,11,0,0,0,309.63,980.45Z" transform="translate(0.47 -939.74)"/>
  </g>
  <path class="cls-2" d="M96.07,982.12c-2-1-1.67-.68.34-1.87l18,2.12-2.28-4,5.08,2.71c3.34-6.68,1.42-7.27,9.67-8.14-2.44,3.21-2,5-2.46,9,2.36-3,3.25-5.27,6.1-8.21a41.7,41.7,0,0,1,6.85-1.06,27.74,27.74,0,0,0-4.15,6.76c2.85,1.74.86-7,13.09-6.47L144,976.26c2,.33,3.27-3.09,4.28-4.57a64.06,64.06,0,0,0,16.7-5.92,60.37,60.37,0,0,0,.53,9c2-13.12,7.74-16.58,29.58-28.44-1.88,11.84-3.6,17.5-13.42,23l5.39-.35c-4.2,8.54-8.23,14-18.29,15.54l5,.44c-10.92,9.87-16,10.54-30.12,7.87l11.39,3a68.27,68.27,0,0,1-21.81,4.15,19.66,19.66,0,0,1-4.24-6.71l-.8,5.56c-8.5-2.06-8-3.46-12.72-10.86,12.3,1.07,29,4,42-3.89-23.24,5.69-39,2.13-61.41-2Z" transform="translate(0.47 -939.74)"/>
  <path class="cls-1" d="M24.11,968C8.87,970.44-1.09,989.35-.44,992.28c.39,1.73,5.85-1.65,14.67-1.53.93-.21,3.45-2.72,6.13-7a20.49,20.49,0,0,1-3,7c9.8.74,17.11,3.44,24.92-6-2,3.3-1.53,6.9-5.88,10,10.39,3.06,23.83,8.85,32.9.34A38.41,38.41,0,0,0,75,988c.28.64-1,6.22-4.58,10.8,17.82-4.33,13-12,18-20,1.25,3.42,6,4.82,6,4.82a8.53,8.53,0,0,1-2.8-5.66c5.27,1.41,9.21-4.43,9.21-4.43-3.06,1.94-11.47,1.16-12.12-1.42-14.23,28.52-44.17,7-65.66,7.39,16.59-8,47.73,17.42,63.84-9.91-3.5-2.23-11.51.68-23.08-.51.33,1.81,3.32,6.45,8.73,8.18-17.48-1.06-16-14.86-45.29-9.94a7.09,7.09,0,0,0,5.64,6.21C27.89,973.39,25.51,970.85,24.11,968Z" transform="translate(0.47 -939.74)"/>
  <g>
    <path class="cls-2" d="M214.27,969.28a40.69,40.69,0,0,1,4.11-.6,41,41,0,0,0-4.15.34,44.33,44.33,0,0,0-9.53,2.38,55.26,55.26,0,0,0-16.86,10.22,71.76,71.76,0,0,0-7,7c-1.1,1.26-2.16,2.56-3.15,3.87-.52.68-1,1.36-1.48,2s-1,1.39-1.4,2.14a1.65,1.65,0,0,0,.56,2.27,1.61,1.61,0,0,0,.85.24,1.63,1.63,0,0,0,1.42-.79.41.41,0,0,0,0-.09v0c.29-.55.67-1.21,1.16-2,.4-.65.83-1.33,1.28-2,.87-1.31,1.81-2.62,2.79-3.9a68.87,68.87,0,0,1,6.36-7.19,53.67,53.67,0,0,1,15.77-11A43.3,43.3,0,0,1,214.27,969.28Z" transform="translate(0.47 -939.74)"/>
    <path class="cls-2" d="M204.43,970.67a44.76,44.76,0,0,1,9.7-2.43,43.68,43.68,0,0,1,5.71-.37c1.41,0,2.82.06,4.22.2a52.82,52.82,0,0,1,18.74,5.66A52.37,52.37,0,0,0,224,969.29l-1.44,0a42.15,42.15,0,0,0-17.19,3.67,52.82,52.82,0,0,0-15.22,10.48c2.07,1.23,7,3,14.79-.85,4.66-2.3,10.9-3.74,17.16-4.29a17.38,17.38,0,0,0-2.32-1.36,16.76,16.76,0,0,0-3.06-1.15,13.25,13.25,0,0,0-3.28-.47,9.74,9.74,0,0,1,3.41-.18,13.64,13.64,0,0,1,3.36.82,16.66,16.66,0,0,1,3.93,2.19c2.13-.12,4.25-.14,6.29,0a15.26,15.26,0,0,0-4-2.9,9.77,9.77,0,0,1,3.17,1.27,13.61,13.61,0,0,1,2.23,1.71,32.15,32.15,0,0,1,11.09,2.39c8.47,4,14,9.63,17.67,3.63,0,0-7.33-15.23-20.21-21.69a15.28,15.28,0,0,0-2.59,1.95,7,7,0,0,1,.81-1.53,9.23,9.23,0,0,1,.72-.93,40.16,40.16,0,0,0-8.4-2.73,21,21,0,0,0-4.33,1.16,18.26,18.26,0,0,0-2.88,1.41,14.69,14.69,0,0,0-2.65,2,6.61,6.61,0,0,1,.81-1.53,10.31,10.31,0,0,1,1.1-1.37,13.29,13.29,0,0,1,2.8-2.19l.32-.17a45.15,45.15,0,0,0-15.45,1.37,20.79,20.79,0,0,0-2.8,2.06,18.09,18.09,0,0,0-2.22,2.32,15.64,15.64,0,0,0-1.81,2.78,7.26,7.26,0,0,1,.23-1.72,10.84,10.84,0,0,1,.57-1.66,12.72,12.72,0,0,1,1.28-2.24A36.08,36.08,0,0,0,193.73,969c0,.26,0,.52,0,.78a15.08,15.08,0,0,0,.43,3.29,6.75,6.75,0,0,1-.94-1.46,9.4,9.4,0,0,1-.59-1.47c-2.78,3.11-4.31,6.53-4.13,9.87A55.21,55.21,0,0,1,204.43,970.67Z" transform="translate(0.47 -939.74)"/>
  </g>
  <g>
    <path class="cls-1" d="M670.87,969.72c1.36.24,2.71.54,4,.91a40.33,40.33,0,0,0-4-1.16,44.47,44.47,0,0,0-9.76-1.16,55,55,0,0,0-19.39,3.55,70.73,70.73,0,0,0-9.08,4.06c-1.47.78-2.92,1.62-4.31,2.49-.73.45-1.44.91-2.1,1.37s-1.39,1-2.08,1.49a1.67,1.67,0,0,0-.29,2.33,1.72,1.72,0,0,0,.72.53,1.64,1.64,0,0,0,1.61-.24l.07-.06,0,0c.46-.41,1-.9,1.79-1.47s1.25-1,1.91-1.43c1.29-.91,2.63-1.81,4-2.65a69.77,69.77,0,0,1,8.5-4.46,53.76,53.76,0,0,1,18.64-4.62A43.32,43.32,0,0,1,670.87,969.72Z" transform="translate(0.47 -939.74)"/>
    <path class="cls-1" d="M661.18,967.52a44.72,44.72,0,0,1,9.93,1.19,43.06,43.06,0,0,1,5.46,1.68,40.6,40.6,0,0,1,3.88,1.69A52.89,52.89,0,0,1,696,984a52.34,52.34,0,0,0-16-10.84c-.44-.19-.89-.37-1.34-.54A42.1,42.1,0,0,0,661.23,970a53,53,0,0,0-18,4.38c1.5,1.89,5.46,5.31,14.12,4.47,5.18-.5,11.52.38,17.57,2.1a18.85,18.85,0,0,0-1.68-2.1,17.38,17.38,0,0,0-2.45-2.16,13.28,13.28,0,0,0-2.91-1.61,9.59,9.59,0,0,1,3.25,1,13.29,13.29,0,0,1,2.85,2,16.15,16.15,0,0,1,2.89,3.44c2,.65,4,1.39,5.9,2.19a14.46,14.46,0,0,0-.71-1.42,13.13,13.13,0,0,0-2-2.69,9.52,9.52,0,0,1,2.51,2.31,13,13,0,0,1,1.48,2.39,32.38,32.38,0,0,1,9.52,6.18c6.5,6.71,9.62,14,15.22,9.68,0,0-1.43-16.84-11.17-27.46a15.32,15.32,0,0,0-3.12.91,6.52,6.52,0,0,1,1.31-1.15,7.85,7.85,0,0,1,1-.61,39.8,39.8,0,0,0-6.88-5.54,21.5,21.5,0,0,0-4.46-.46,18.2,18.2,0,0,0-3.19.29,15.6,15.6,0,0,0-3.19.92,7.14,7.14,0,0,1,1.3-1.15A10.92,10.92,0,0,1,682,965a13,13,0,0,1,3.39-1l.37-.05a45.4,45.4,0,0,0-14.93-4.22,20.58,20.58,0,0,0-3.35.94,17.83,17.83,0,0,0-2.9,1.37,15.06,15.06,0,0,0-2.68,2,7.1,7.1,0,0,1,.83-1.53,10.29,10.29,0,0,1,1.12-1.35,12.42,12.42,0,0,1,2-1.63,36.07,36.07,0,0,0-14.07,2.73c-.1.24-.19.49-.28.73a15.47,15.47,0,0,0-.76,3.24,7.06,7.06,0,0,1-.36-1.7,9.39,9.39,0,0,1,0-1.59c-3.7,1.92-6.35,4.57-7.37,7.75A55.41,55.41,0,0,1,661.18,967.52Z" transform="translate(0.47 -939.74)"/>
  </g>
  <g>
    <path class="cls-1" d="M796.87,964.72c1.36.24,2.71.54,4,.91a40.33,40.33,0,0,0-4-1.16,44.47,44.47,0,0,0-9.76-1.16,55,55,0,0,0-19.39,3.55,70.73,70.73,0,0,0-9.08,4.06c-1.47.78-2.92,1.62-4.31,2.49-.73.45-1.44.91-2.1,1.37s-1.39,1-2.08,1.49a1.67,1.67,0,0,0-.29,2.33,1.72,1.72,0,0,0,.72.53,1.64,1.64,0,0,0,1.61-.24l.07-.06,0,0c.46-.41,1-.9,1.79-1.47s1.25-1,1.91-1.43c1.29-.91,2.63-1.81,4-2.65a69.77,69.77,0,0,1,8.5-4.46,53.76,53.76,0,0,1,18.64-4.62A43.32,43.32,0,0,1,796.87,964.72Z" transform="translate(0.47 -939.74)"/>
    <path class="cls-1" d="M787.18,962.52a44.72,44.72,0,0,1,9.93,1.19,43.06,43.06,0,0,1,5.46,1.68,40.6,40.6,0,0,1,3.88,1.69A52.89,52.89,0,0,1,822,979a52.34,52.34,0,0,0-16-10.84c-.44-.19-.89-.37-1.34-.54A42.1,42.1,0,0,0,787.23,965a53,53,0,0,0-18,4.38c1.5,1.89,5.46,5.31,14.12,4.47,5.18-.5,11.52.38,17.57,2.1a18.85,18.85,0,0,0-1.68-2.1,17.38,17.38,0,0,0-2.45-2.16,13.28,13.28,0,0,0-2.91-1.61,9.59,9.59,0,0,1,3.25,1,13.29,13.29,0,0,1,2.85,2,16.15,16.15,0,0,1,2.89,3.44c2,.65,4,1.39,5.9,2.19a14.46,14.46,0,0,0-.71-1.42,13.13,13.13,0,0,0-2-2.69,9.52,9.52,0,0,1,2.51,2.31,13,13,0,0,1,1.48,2.39,32.38,32.38,0,0,1,9.52,6.18c6.5,6.71,9.62,14,15.22,9.68,0,0-1.43-16.84-11.17-27.46a15.32,15.32,0,0,0-3.12.91,6.52,6.52,0,0,1,1.31-1.15,7.85,7.85,0,0,1,1-.61,39.8,39.8,0,0,0-6.88-5.54,21.5,21.5,0,0,0-4.46-.46,18.2,18.2,0,0,0-3.19.29,15.6,15.6,0,0,0-3.19.92,7.14,7.14,0,0,1,1.3-1.15A10.92,10.92,0,0,1,808,960a13,13,0,0,1,3.39-1l.37-.05a45.4,45.4,0,0,0-14.93-4.22,20.58,20.58,0,0,0-3.35.94,17.83,17.83,0,0,0-2.9,1.37,15.06,15.06,0,0,0-2.68,2,7.1,7.1,0,0,1,.83-1.53,10.29,10.29,0,0,1,1.12-1.35,12.42,12.42,0,0,1,2-1.63,36.07,36.07,0,0,0-14.07,2.73c-.1.24-.19.49-.28.73a15.47,15.47,0,0,0-.76,3.24,7.06,7.06,0,0,1-.36-1.7,9.39,9.39,0,0,1,0-1.59c-3.7,1.92-6.35,4.57-7.37,7.75A55.41,55.41,0,0,1,787.18,962.52Z" transform="translate(0.47 -939.74)"/>
  </g>
  <g>
    <path class="cls-2" d="M723.29,985.27a53.84,53.84,0,0,1-15.7-11.06,67.92,67.92,0,0,1-6.31-7.24c-1-1.28-1.9-2.6-2.77-3.92-.44-.68-.87-1.36-1.26-2s-.86-1.47-1.14-2l0,0a.36.36,0,0,0,0-.09,1.64,1.64,0,0,0-1.42-.8,1.65,1.65,0,0,0-1.43,2.5c.45.75.88,1.4,1.39,2.15s.95,1.35,1.46,2c1,1.32,2,2.62,3.13,3.89a69.72,69.72,0,0,0,7,7.07A55.05,55.05,0,0,0,723,986.08a44.18,44.18,0,0,0,9.51,2.44,40.55,40.55,0,0,0,4.14.37c-1.38-.14-2.75-.35-4.1-.62A43.56,43.56,0,0,1,723.29,985.27Z" transform="translate(0.47 -939.74)"/>
    <path class="cls-2" d="M706.82,977.35c-.2,3.33,1.31,6.76,4.06,9.89a9.48,9.48,0,0,1,.61-1.47,6.37,6.37,0,0,1,1-1.45,15,15,0,0,0-.46,3.29c0,.26,0,.52,0,.78A36.23,36.23,0,0,0,724.1,996a12.49,12.49,0,0,1-1.27-2.25,10.88,10.88,0,0,1-.55-1.67,6.66,6.66,0,0,1-.23-1.72,15.72,15.72,0,0,0,1.79,2.8,18.78,18.78,0,0,0,2.21,2.33,21.74,21.74,0,0,0,2.79,2.08,45,45,0,0,0,15.44,1.48l-.33-.18a12.89,12.89,0,0,1-2.77-2.21,9.57,9.57,0,0,1-1.1-1.37,6.84,6.84,0,0,1-.8-1.54,15.62,15.62,0,0,0,2.64,2,18.72,18.72,0,0,0,2.87,1.43,21.59,21.59,0,0,0,4.32,1.18,39.45,39.45,0,0,0,8.41-2.67,9,9,0,0,1-.7-.93,6.64,6.64,0,0,1-.8-1.54,15.07,15.07,0,0,0,2.58,2c12.92-6.37,20.35-21.55,20.35-21.55-3.66-6-9.2-.39-17.69,3.51a32.73,32.73,0,0,1-11.11,2.32,13.73,13.73,0,0,1-2.25,1.68,9.51,9.51,0,0,1-3.17,1.25,13.28,13.28,0,0,0,2.79-1.79c.42-.34.81-.7,1.19-1.07-2,.07-4.16,0-6.3-.1a16.42,16.42,0,0,1-3.94,2.16,13.56,13.56,0,0,1-3.37.8,9.46,9.46,0,0,1-3.4-.2,13.45,13.45,0,0,0,3.29-.45,16.51,16.51,0,0,0,3.06-1.13,18.51,18.51,0,0,0,2.33-1.34c-6.26-.6-12.49-2.07-17.13-4.41-7.78-3.92-12.71-2.17-14.79-.95a52.87,52.87,0,0,0,15.15,10.58,42.67,42.67,0,0,0,9.06,3,42.25,42.25,0,0,0,8.1.84c.49,0,1,0,1.45,0A52.25,52.25,0,0,0,761.07,984a52.81,52.81,0,0,1-18.78,5.53c-1.4.13-2.81.18-4.23.17a41.91,41.91,0,0,1-5.7-.41,44.58,44.58,0,0,1-9.68-2.49A55.39,55.39,0,0,1,706.82,977.35Z" transform="translate(0.47 -939.74)"/>
  </g>
  <path class="cls-1" d="M133.7,956s1.83-3.46,7-3.65a31.44,31.44,0,0,0-14.78.65s2.3-4.21,8.82-3.56c-8.06-3.46-16.44-3.27-22.24.67a19.32,19.32,0,0,1,6.61-5.73,19.23,19.23,0,0,0-16,3.2c.24-1.51,3.49-4.84,3.49-4.84a17,17,0,0,0-16.76,12.13s-3.7-5.27-1.16-9.44c-5.8,2.39-11.23,7.08-9.68,13.43-7.91,3.4-14.62,7.51-20.11,13.84,5.75-2.53,20.15-12.56,58.57-12.41-11.12,1.11-23.19,3.11-33.85,6.58a27.66,27.66,0,0,0,7.53,5.43,11.2,11.2,0,0,1-2.17-4.44,28,28,0,0,0,18.16,8.48,11.52,11.52,0,0,1-3.48-5.87,19,19,0,0,0,14.37,5.13c-9-3.5-11.23-8.93-11.23-8.93,4.62,3.54,12.45,9.15,17.89,7.58h0a14.09,14.09,0,0,1-5.08-5.69c3.93,2.91,7.91,4.82,12.23,3.3a14.15,14.15,0,0,1-4.48-5.33c9.35,7.36,12.43.09,21.29,1.34A31.77,31.77,0,0,0,137.38,964c5.57-.45,9-3.86,25.77,6.68C156.9,961.1,144.51,952.72,133.7,956Z" transform="translate(0.47 -939.74)"/>
  <path class="cls-2" d="M488.7,953s1.83-3.46,7-3.65a31.44,31.44,0,0,0-14.78.65s2.3-4.21,8.82-3.56c-8.06-3.46-16.44-3.27-22.24.67a19.32,19.32,0,0,1,6.61-5.73,19.23,19.23,0,0,0-16.05,3.2c.24-1.51,3.49-4.84,3.49-4.84a17,17,0,0,0-16.76,12.13s-3.7-5.27-1.16-9.44c-5.8,2.39-11.23,7.08-9.68,13.43-7.91,3.4-14.62,7.51-20.11,13.84,5.75-2.53,20.15-12.56,58.57-12.41-11.12,1.11-23.19,3.11-33.85,6.58a27.66,27.66,0,0,0,7.53,5.43,11.2,11.2,0,0,1-2.17-4.44,28,28,0,0,0,18.16,8.48,11.52,11.52,0,0,1-3.48-5.87,19,19,0,0,0,14.37,5.13c-9-3.5-11.23-8.93-11.23-8.93,4.62,3.54,12.45,9.15,17.89,7.58h0a14.09,14.09,0,0,1-5.08-5.69c3.93,2.91,7.91,4.82,12.23,3.3a14.15,14.15,0,0,1-4.48-5.33c9.35,7.36,12.43.09,21.29,1.34A31.77,31.77,0,0,0,492.38,961c5.57-.45,9-3.86,25.77,6.68C511.9,958.1,499.51,949.72,488.7,953Z" transform="translate(0.47 -939.74)"/>
  <g>
    <path class="cls-1" d="M837.76,957.61s0,0,0-.05Z" transform="translate(0.47 -939.74)"/>
    <path class="cls-1" d="M829.71,965.1c2.44,8.17,11,11.15,20.65,10.68a21.78,21.78,0,0,1-11.1-9l-.2-.08c-3-1-5.53-4.83-5.44-4.83l.52.5a22.38,22.38,0,0,0,2.39,2.17,7.24,7.24,0,0,0,1.28.84c.63.28.82,0,1.11-.49.12-.21.33-.2.55-.14.4.11.85.3,1,0a.77.77,0,0,0,.09-.38.71.71,0,0,1-.13.35c-.17.21-.55,0-1-.14a.61.61,0,0,0-.76.16c-.13.23-.24.4-.45.36-1.77-1-.47-.91-.68-1.39a8,8,0,0,0,3.34-.47,3.9,3.9,0,0,1,1.69,0,3.55,3.55,0,0,0-1.72-.1c-.91.1-2.19.66-3.46.28a5.71,5.71,0,0,1-2.17-1.51,3.51,3.51,0,0,0-1.62-1.2,2.42,2.42,0,0,1,1.47.77,3.38,3.38,0,0,0,1.78,1l.17,0h0a5.77,5.77,0,0,0-.9-.51,1.15,1.15,0,0,1-.62-.59,1.6,1.6,0,0,0,.61.39,3,3,0,0,1,.77.28,0,0,0,0,0,0,0,6.7,6.7,0,0,0,2,.57,2,2,0,0,0,1.13-.2,2.06,2.06,0,0,1-1.11.05,8.84,8.84,0,0,1-2.16-.8.76.76,0,0,0,0-.11,2.82,2.82,0,0,0,2.29.52,2.45,2.45,0,0,0,1-.51,2.8,2.8,0,0,1-1,.37,2.65,2.65,0,0,1-1.56-.29,2.34,2.34,0,0,1-.76-.52c-.17-.18-.17-.44-.31-.62a3.11,3.11,0,0,0,.43.5,1.93,1.93,0,0,0,.65.42,2.45,2.45,0,0,1-.55-.52,1.69,1.69,0,0,1-.21-.31,6.54,6.54,0,0,0-.45-.71c-.18-.23-.42-.21-.68-.23a1.18,1.18,0,0,1-.67-.28c-.47-.42-.64-1-.91-1.09,0,0,.2,0,.5.28s.56.67,1,.72a.76.76,0,0,1,.59.38s0,0,0-.07a1.12,1.12,0,0,0-.59-.56c-.6-.29-.52-.83-.86-1.08a1.93,1.93,0,0,0-.59-.3.93.93,0,0,1,.77.2,5.8,5.8,0,0,0,1,.85c.21.09.44.18.72.27a3.73,3.73,0,0,1,2.12,1,.6.6,0,0,1,0,.86.65.65,0,0,0,.16-1,3.4,3.4,0,0,0-2.16-1.19,7.87,7.87,0,0,1-.76-.28c.5,0,1.09-.13,1.76-.22a7,7,0,0,1,3.69.62c.39.29.71.57.76.83a.24.24,0,0,1-.29.17.26.26,0,0,0,.34-.17,1.9,1.9,0,0,0-.72-.94,6.27,6.27,0,0,0-3.81-.8c-.77.1-1.41.2-1.92.25a1.79,1.79,0,0,1-.76-.46,4.39,4.39,0,0,0,.65,0l.46-.1a2.24,2.24,0,0,1,1.72-.08,1,1,0,0,0-.43-.28,2.69,2.69,0,0,0-1.36.07l-.46.11v0a1.84,1.84,0,0,1-.82-.09c-.37-.1-.49,0-.49,0a.45.45,0,0,1,.45-.15.62.62,0,0,0,.63-.19c.09-.14-.07-.55,0-.61a2.5,2.5,0,0,1,.58-.43c.8-.34,1.8-.38,2.23-.94a1.54,1.54,0,0,0,.33-1,1.83,1.83,0,0,1-.43.87c-.43.45-1.33.39-2.26.78a2.39,2.39,0,0,0-.52.37c-.16-.73-.29-1.5-.42-2.28a28.14,28.14,0,0,1,2.48-5.07c.49-.8,1.3-2.1.9-3.06a5,5,0,0,0-.36-.63c-.58,1-1.16,2-1.75,3.07a29.65,29.65,0,0,0-2.5,6.22c-.29.47-.62,1-1,1.61a8.56,8.56,0,0,0-.08-1,3.12,3.12,0,0,1,.36-1.13.87.87,0,0,0,.29-.1.82.82,0,0,1-.26.05,3.81,3.81,0,0,0,.36-1,1,1,0,0,0-.22-.94,1,1,0,0,1,.08.9,5,5,0,0,1-.52,1l-.47,0a1.19,1.19,0,0,0-.9.74,1.68,1.68,0,0,0,.23,1.42.75.75,0,0,0,.07.12,1.68,1.68,0,0,0-.33.26c-.41.4-.27,1.19,0,1.85l-.15,0c-.47.07-.78.55-1,1.12a2.44,2.44,0,0,0-1.75,1.3c-.52,2.17-1.72,1.74-1.6,1.95,0,0,.19.08.63,0s.93-.86,1.24-1.77A2.38,2.38,0,0,1,830,959.5a4.17,4.17,0,0,0-.08.49,4.24,4.24,0,0,1-.72,2c0,.06.53-.13.84-1.14v.18c0,.18,0,.37,0,.56a10.9,10.9,0,0,0-.34,1.74,5,5,0,0,1-2.42,1.49c-.61.28-.74.55-.72.56s.2-.15.8-.38a5.14,5.14,0,0,0,2.29-1.17A8.46,8.46,0,0,0,829.71,965.1Zm6.22-15.63,1.82-3,.21.32s-.09.11-1.81,2.92a21.07,21.07,0,0,0-1.56,3.19l0-.18-.29.43A28.56,28.56,0,0,1,835.93,949.47Zm-5,9.75-.26,0a1.28,1.28,0,0,1,.45-.4Zm.54-1.19,0,0,.05,0Zm.67-4.15.39-.07a3.18,3.18,0,0,0-.33,1c.08.66.11,1.14.12,1.5l-.27.52a2.27,2.27,0,0,0-.26-1c.06,0,.11-.06.1-.07s0,0-.12,0a.75.75,0,0,0-.07-.12A1.16,1.16,0,0,1,832.11,953.88Zm-.84,2.49a1.74,1.74,0,0,1,.24-.28c.38.77.26,1.3,0,1.57l-.14.18C831.13,957.26,831,956.71,831.27,956.37Zm-.21,1.92.15,0,.07.13c0,.11-.1.21-.14.32a1.48,1.48,0,0,0-.67.52l-.11,0A1.21,1.21,0,0,1,831.06,958.29Zm-.74,1.12h0a1.17,1.17,0,0,0-.05.11A.3.3,0,0,1,830.32,959.41Zm.22-.06h0a1,1,0,0,1,.29,0c-.21.51-.4,1-.57,1.55A3.26,3.26,0,0,1,830.54,959.35Z" transform="translate(0.47 -939.74)"/>
    <path class="cls-1" d="M883.63,979.45a23.83,23.83,0,0,0,.85-9.3c-.14-1.37-.23-3.93-1.65-4.7s-4,.8-5.14,1.7a39.06,39.06,0,0,1-5.82,3.89,39.9,39.9,0,0,1-7.94,11.34s4.89-7,6.24-10.44a14.17,14.17,0,0,0-5.17,5.11c-1.41,2.55-1.81,4.53-4.2,6.44a10.07,10.07,0,0,0,2.67-4.66,10.88,10.88,0,0,1,3.85-5.28,29,29,0,0,1,2.79-1.58c-1.15.57-2.33,1.1-3.54,1.58-1.73.85-4.22,2.14-5.25,4.83-1.43,3.74-3.21,6.7-5.12,7.92a.41.41,0,0,1-.11.07,11.07,11.07,0,0,0,3.21-4.72c.92-2.77,1.43-5.27,3-6.58-13.76,4.22-29.36,2.94-32.64-8.75l.23,2.8c.64,4.21,2.88,8.55,5.06,12.16l0,0A28.52,28.52,0,0,0,838.2,984c10.33,7.69,23.31,5.7,30.22,1.75,7.41-3.91,9.38-9.22,9.43-9.07.13-.1-1.72,5.39-9.2,9.49-6.95,4.12-20.24,6.27-30.85-1.62-.44-.31-.85-.63-1.26-1a38.11,38.11,0,0,0,8.52,8c7.22,5,17.14,7.69,25.33,3.46A26.5,26.5,0,0,0,883,981.31a13,13,0,0,1-6.45,2.49A11,11,0,0,0,883.63,979.45Z" transform="translate(0.47 -939.74)"/>
  </g>
  <g>
    <path class="cls-2" d="M786.76,959.61s0,0,0-.05Z" transform="translate(0.47 -939.74)"/>
    <path class="cls-2" d="M778.71,967.1c2.44,8.17,11,11.15,20.65,10.68a21.78,21.78,0,0,1-11.1-9l-.2-.08c-3-1-5.53-4.83-5.44-4.83l.52.5a22.38,22.38,0,0,0,2.39,2.17,7.24,7.24,0,0,0,1.28.84c.63.28.82,0,1.11-.49.12-.21.33-.2.55-.14.4.11.85.3,1,0a.77.77,0,0,0,.09-.38.71.71,0,0,1-.13.35c-.17.21-.55,0-1-.14a.61.61,0,0,0-.76.16c-.13.23-.24.4-.45.36-1.77-1-.47-.91-.68-1.39a8,8,0,0,0,3.34-.47,3.9,3.9,0,0,1,1.69,0,3.55,3.55,0,0,0-1.72-.1c-.91.1-2.19.66-3.46.28a5.71,5.71,0,0,1-2.17-1.51,3.51,3.51,0,0,0-1.62-1.2,2.42,2.42,0,0,1,1.47.77,3.38,3.38,0,0,0,1.78,1l.17,0h0a5.77,5.77,0,0,0-.9-.51,1.15,1.15,0,0,1-.62-.59,1.6,1.6,0,0,0,.61.39,3,3,0,0,1,.77.28,0,0,0,0,0,0,0,6.7,6.7,0,0,0,2,.57,2,2,0,0,0,1.13-.2,2.06,2.06,0,0,1-1.11.05,8.84,8.84,0,0,1-2.16-.8.76.76,0,0,0,0-.11,2.82,2.82,0,0,0,2.29.52,2.45,2.45,0,0,0,1-.51,2.8,2.8,0,0,1-1,.37,2.65,2.65,0,0,1-1.56-.29,2.34,2.34,0,0,1-.76-.52c-.17-.18-.17-.44-.31-.62a3.11,3.11,0,0,0,.43.5,1.93,1.93,0,0,0,.65.42,2.45,2.45,0,0,1-.55-.52,1.69,1.69,0,0,1-.21-.31,6.54,6.54,0,0,0-.45-.71c-.18-.23-.42-.21-.68-.23a1.18,1.18,0,0,1-.67-.28c-.47-.42-.64-1-.91-1.09,0,0,.2,0,.5.28s.56.67,1,.72a.76.76,0,0,1,.59.38s0,0,0-.07a1.12,1.12,0,0,0-.59-.56c-.6-.29-.52-.83-.86-1.08a1.93,1.93,0,0,0-.59-.3.93.93,0,0,1,.77.2,5.8,5.8,0,0,0,1,.85c.21.09.44.18.72.27a3.73,3.73,0,0,1,2.12,1,.6.6,0,0,1,0,.86.65.65,0,0,0,.16-1,3.4,3.4,0,0,0-2.16-1.19,7.87,7.87,0,0,1-.76-.28c.5,0,1.09-.13,1.76-.22a7,7,0,0,1,3.69.62c.39.29.71.57.76.83a.24.24,0,0,1-.29.17.26.26,0,0,0,.34-.17,1.9,1.9,0,0,0-.72-.94,6.27,6.27,0,0,0-3.81-.8c-.77.1-1.41.2-1.92.25a1.79,1.79,0,0,1-.76-.46,4.39,4.39,0,0,0,.65,0l.46-.1a2.24,2.24,0,0,1,1.72-.08,1,1,0,0,0-.43-.28,2.69,2.69,0,0,0-1.36.07l-.46.11v0a1.84,1.84,0,0,1-.82-.09c-.37-.1-.49,0-.49,0a.45.45,0,0,1,.45-.15.62.62,0,0,0,.63-.19c.09-.14-.07-.55,0-.61a2.5,2.5,0,0,1,.58-.43c.8-.34,1.8-.38,2.23-.94a1.54,1.54,0,0,0,.33-1,1.83,1.83,0,0,1-.43.87c-.43.45-1.33.39-2.26.78a2.39,2.39,0,0,0-.52.37c-.16-.73-.29-1.5-.42-2.28a28.14,28.14,0,0,1,2.48-5.07c.49-.8,1.3-2.1.9-3.06a5,5,0,0,0-.36-.63c-.58,1-1.16,2-1.75,3.07a29.65,29.65,0,0,0-2.5,6.22c-.29.47-.62,1-1,1.61a8.56,8.56,0,0,0-.08-1,3.12,3.12,0,0,1,.36-1.13.87.87,0,0,0,.29-.1.82.82,0,0,1-.26.05,3.81,3.81,0,0,0,.36-1,1,1,0,0,0-.22-.94,1,1,0,0,1,.08.9,5,5,0,0,1-.52,1l-.47,0a1.19,1.19,0,0,0-.9.74,1.68,1.68,0,0,0,.23,1.42.75.75,0,0,0,.07.12,1.68,1.68,0,0,0-.33.26c-.41.4-.27,1.19,0,1.85l-.15,0c-.47.07-.78.55-1,1.12a2.44,2.44,0,0,0-1.75,1.3c-.52,2.17-1.72,1.74-1.6,1.95,0,0,.19.08.63,0s.93-.86,1.24-1.77A2.38,2.38,0,0,1,779,961.5a4.17,4.17,0,0,0-.08.49,4.24,4.24,0,0,1-.72,2c0,.06.53-.13.84-1.14v.18c0,.18,0,.37,0,.56a10.9,10.9,0,0,0-.34,1.74,5,5,0,0,1-2.42,1.49c-.61.28-.74.55-.72.56s.2-.15.8-.38a5.14,5.14,0,0,0,2.29-1.17A8.46,8.46,0,0,0,778.71,967.1Zm6.22-15.63,1.82-3,.21.32s-.09.11-1.81,2.92a21.07,21.07,0,0,0-1.56,3.19l0-.18-.29.43A28.56,28.56,0,0,1,784.93,951.47Zm-5,9.75-.26,0a1.28,1.28,0,0,1,.45-.4Zm.54-1.19,0,0,.05,0Zm.67-4.15.39-.07a3.18,3.18,0,0,0-.33,1c.08.66.11,1.14.12,1.5l-.27.52a2.27,2.27,0,0,0-.26-1c.06,0,.11-.06.1-.07s0,0-.12,0a.75.75,0,0,0-.07-.12A1.16,1.16,0,0,1,781.11,955.88Zm-.84,2.49a1.74,1.74,0,0,1,.24-.28c.38.77.26,1.3,0,1.57l-.14.18C780.13,959.26,780,958.71,780.27,958.37Zm-.21,1.92.15,0,.07.13c0,.11-.1.21-.14.32a1.48,1.48,0,0,0-.67.52l-.11,0A1.21,1.21,0,0,1,780.06,960.29Zm-.74,1.12h0a1.17,1.17,0,0,0-.05.11A.3.3,0,0,1,779.32,961.41Zm.22-.06h0a1,1,0,0,1,.29,0c-.21.51-.4,1-.57,1.55A3.26,3.26,0,0,1,779.54,961.35Z" transform="translate(0.47 -939.74)"/>
    <path class="cls-2" d="M832.63,981.45a23.83,23.83,0,0,0,.85-9.3c-.14-1.37-.23-3.93-1.65-4.7s-4,.8-5.14,1.7a39.06,39.06,0,0,1-5.82,3.89,39.9,39.9,0,0,1-7.94,11.34s4.89-7,6.24-10.44a14.17,14.17,0,0,0-5.17,5.11c-1.41,2.55-1.81,4.53-4.2,6.44a10.07,10.07,0,0,0,2.67-4.66,10.88,10.88,0,0,1,3.85-5.28,29,29,0,0,1,2.79-1.58c-1.15.57-2.33,1.1-3.54,1.58-1.73.85-4.22,2.14-5.25,4.83-1.43,3.74-3.21,6.7-5.12,7.92a.41.41,0,0,1-.11.07,11.07,11.07,0,0,0,3.21-4.72c.92-2.77,1.43-5.27,3-6.58-13.76,4.22-29.36,2.94-32.64-8.75l.23,2.8c.64,4.21,2.88,8.55,5.06,12.16l0,0A28.52,28.52,0,0,0,787.2,986c10.33,7.69,23.31,5.7,30.22,1.75,7.41-3.91,9.38-9.22,9.43-9.07.13-.1-1.72,5.39-9.2,9.49-6.95,4.12-20.24,6.27-30.85-1.62-.44-.31-.85-.63-1.26-1a38.11,38.11,0,0,0,8.52,8c7.22,5,17.14,7.69,25.33,3.46A26.5,26.5,0,0,0,832,983.31a13,13,0,0,1-6.45,2.49A11,11,0,0,0,832.63,981.45Z" transform="translate(0.47 -939.74)"/>
  </g>
  <path class="cls-2" d="M630.52,971.47c1.72,1.42,1.47,1-.75,1.74l-17-6.1c.45,1.46.89,2.93,1.34,4.39l-4.35-3.78c-4.76,5.75-3,6.76-11.25,5.75,3.09-2.57,3-4.4,4.42-8.2-3,2.37-4.36,4.4-7.8,6.63a43.06,43.06,0,0,1-6.9-.51,28.09,28.09,0,0,0,5.56-5.65c-2.39-2.34-2.41,6.6-14.21,3.36l3-2.7c-1.85-.77-3.88,2.28-5.2,3.49a63.72,63.72,0,0,0-17.6,2,61.05,61.05,0,0,0,1.51-8.9c-5,12.31-11.27,14.41-35.23,21.06,4.51-11.12,7.45-16.24,18.27-19.45l-5.33-.86c6-7.38,11.17-11.83,21.31-11l-4.8-1.56c12.85-7.16,18-6.66,31.11-.89l-10.43-5.49a68.28,68.28,0,0,1,22.2.86,19.76,19.76,0,0,1,2.62,7.5l2-5.25c7.83,3.92,7.06,5.18,9.95,13.45-11.73-3.81-27.39-10.4-41.75-5.65,23.92-.31,38.46,6.7,59.38,15.78Z" transform="translate(0.47 -939.74)"/>
  <path class="cls-1" d="M907.68,966.93c-14.29,2.27-23.63,20-23,22.75.36,1.62,5.48-1.55,13.76-1.43.88-.2,3.23-2.56,5.75-6.53a19.29,19.29,0,0,1-2.79,6.59c9.2.7,16,3.23,23.38-5.61-1.87,3.1-1.44,6.48-5.52,9.35,9.75,2.87,22.36,8.31,30.86.32a35.84,35.84,0,0,0,5.32-6.69c.26.6-.93,5.84-4.29,10.13,16.71-4.06,12.16-11.23,16.91-18.71,1.18,3.21,5.59,4.52,5.59,4.52a8,8,0,0,1-2.62-5.31c4.94,1.32,8.63-4.15,8.63-4.15-2.87,1.82-10.76,1.09-11.36-1.33-13.35,26.75-41.43,6.56-61.59,6.93,15.56-7.47,44.77,16.34,59.88-9.3-3.28-2.08-10.79.64-21.65-.48.31,1.7,3.12,6.06,8.19,7.67-16.39-1-15-13.93-42.48-9.32a6.65,6.65,0,0,0,5.29,5.83A8.82,8.82,0,0,1,907.68,966.93Z" transform="translate(0.47 -939.74)"/>
  <g>
    <path class="cls-1" d="M1011.27,967.28a40.69,40.69,0,0,1,4.11-.6,41,41,0,0,0-4.15.34,44.33,44.33,0,0,0-9.53,2.38,55.26,55.26,0,0,0-16.86,10.22,71.76,71.76,0,0,0-7,7c-1.1,1.26-2.16,2.56-3.15,3.87-.52.68-1,1.36-1.48,2s-.95,1.39-1.4,2.14a1.65,1.65,0,0,0,.56,2.27,1.61,1.61,0,0,0,.85.24,1.63,1.63,0,0,0,1.42-.79.41.41,0,0,0,0-.09v0c.29-.55.67-1.21,1.16-2,.4-.65.83-1.33,1.28-2,.87-1.31,1.81-2.62,2.79-3.9a68.87,68.87,0,0,1,6.36-7.19,53.67,53.67,0,0,1,15.77-11A43.3,43.3,0,0,1,1011.27,967.28Z" transform="translate(0.47 -939.74)"/>
    <path class="cls-1" d="M1001.43,968.67a44.76,44.76,0,0,1,9.7-2.43,43.68,43.68,0,0,1,5.71-.37c1.41,0,2.82.06,4.22.2a52.82,52.82,0,0,1,18.74,5.66,52.37,52.37,0,0,0-18.82-4.44l-1.44,0a42.15,42.15,0,0,0-17.19,3.67,52.82,52.82,0,0,0-15.22,10.48c2.07,1.23,7,3,14.79-.85,4.66-2.3,10.9-3.74,17.16-4.29a17.38,17.38,0,0,0-2.32-1.36,16.76,16.76,0,0,0-3.06-1.15,13.25,13.25,0,0,0-3.28-.47,9.74,9.74,0,0,1,3.41-.18,13.64,13.64,0,0,1,3.36.82,16.66,16.66,0,0,1,3.93,2.19c2.13-.12,4.25-.14,6.29,0a15.26,15.26,0,0,0-4-2.9,9.77,9.77,0,0,1,3.17,1.27,13.61,13.61,0,0,1,2.23,1.71,32.15,32.15,0,0,1,11.09,2.39c8.47,4,14,9.63,17.67,3.63,0,0-7.33-15.23-20.21-21.69a15.28,15.28,0,0,0-2.59,1.95,7,7,0,0,1,.81-1.53,9.23,9.23,0,0,1,.72-.93,40.16,40.16,0,0,0-8.4-2.73,21,21,0,0,0-4.33,1.16,18.26,18.26,0,0,0-2.88,1.41,14.69,14.69,0,0,0-2.65,2,6.61,6.61,0,0,1,.81-1.53,10.31,10.31,0,0,1,1.1-1.37,13.29,13.29,0,0,1,2.8-2.19l.32-.17a45.15,45.15,0,0,0-15.45,1.37,20.79,20.79,0,0,0-2.8,2.06,18.09,18.09,0,0,0-2.22,2.32,15.64,15.64,0,0,0-1.81,2.78,7.26,7.26,0,0,1,.23-1.72,10.84,10.84,0,0,1,.57-1.66,12.72,12.72,0,0,1,1.28-2.24A36.08,36.08,0,0,0,990.73,967c0,.26,0,.52,0,.78a15.08,15.08,0,0,0,.43,3.29,6.75,6.75,0,0,1-.94-1.46,9.4,9.4,0,0,1-.59-1.47c-2.78,3.11-4.31,6.53-4.13,9.87A55.21,55.21,0,0,1,1001.43,968.67Z" transform="translate(0.47 -939.74)"/>
  </g>
  <g>
    <path class="cls-2" d="M1210.11,964.19a53.69,53.69,0,0,1,15.79,10.91,68.9,68.9,0,0,1,6.38,7.19c1,1.27,1.92,2.58,2.8,3.89.45.68.88,1.36,1.28,2s.87,1.46,1.16,2v0a.56.56,0,0,1,0,.08,1.67,1.67,0,0,0,2.28.55,1.66,1.66,0,0,0,.55-2.28c-.45-.74-.89-1.39-1.41-2.13s-1-1.34-1.48-2c-1-1.3-2-2.6-3.15-3.86a71.8,71.8,0,0,0-7.06-7,54.89,54.89,0,0,0-16.88-10.18,44.31,44.31,0,0,0-9.53-2.37c-1.37-.17-2.76-.29-4.15-.33,1.38.13,2.76.33,4.11.59A43.17,43.17,0,0,1,1210.11,964.19Z" transform="translate(0.47 -939.74)"/>
    <path class="cls-2" d="M1226.65,972c.17-3.33-1.37-6.75-4.15-9.85a11,11,0,0,1-.59,1.47A7.14,7.14,0,0,1,1221,965a15.72,15.72,0,0,0,.43-3.29c0-.26,0-.52,0-.78a35.88,35.88,0,0,0-12.2-7.54,12.42,12.42,0,0,1,1.29,2.23,11.22,11.22,0,0,1,.57,1.66,7.29,7.29,0,0,1,.24,1.73,15.41,15.41,0,0,0-1.82-2.79,18.68,18.68,0,0,0-2.22-2.31,20.89,20.89,0,0,0-2.81-2.06,45.15,45.15,0,0,0-15.45-1.33l.32.17a12.93,12.93,0,0,1,2.8,2.18,11.26,11.26,0,0,1,1.11,1.37,6.79,6.79,0,0,1,.81,1.53,15.12,15.12,0,0,0-2.66-2,19.12,19.12,0,0,0-2.88-1.4,21.61,21.61,0,0,0-4.33-1.15,39.58,39.58,0,0,0-8.39,2.75,7.78,7.78,0,0,1,.71.92,6.71,6.71,0,0,1,.82,1.54,15,15,0,0,0-2.6-2c-12.86,6.48-20.16,21.73-20.16,21.73,3.72,6,9.21.31,17.66-3.67a32.41,32.41,0,0,1,11.09-2.41,13.61,13.61,0,0,1,2.23-1.71,9.74,9.74,0,0,1,3.16-1.28,13.67,13.67,0,0,0-2.77,1.82,13.49,13.49,0,0,0-1.18,1.08c2-.09,4.16-.07,6.3,0a16.09,16.09,0,0,1,3.92-2.2,13.55,13.55,0,0,1,3.36-.83,9.52,9.52,0,0,1,3.41.17,13.34,13.34,0,0,0-3.29.48,17.33,17.33,0,0,0-3.06,1.15,19.22,19.22,0,0,0-2.31,1.37c6.26.54,12.51,2,17.17,4.26,7.81,3.85,12.72,2.05,14.79.81a53,53,0,0,0-15.24-10.45,42,42,0,0,0-17.2-3.63l-1.44,0a52.33,52.33,0,0,0-18.81,4.48,53.09,53.09,0,0,1,18.73-5.7c1.4-.13,2.81-.21,4.22-.21a43.68,43.68,0,0,1,5.71.37,44.92,44.92,0,0,1,9.71,2.4A55.55,55.55,0,0,1,1226.65,972Z" transform="translate(0.47 -939.74)"/>
  </g>
  <path class="cls-1" d="M1063.42,994.27c4.31,1.45,8.57,2.9,13.56,2.23,11.42,4.36,20,1.58,34.17-4l-9.19,6.34c6.38-.68,10.64-2.08,14.88-6.32,0,1.43,0,1.43.75,2.16l.65-3.56,2.88,2.88c-1.17-3.48,1-3.66,1.41-5.51-21.38,6.29-41.07,3.53-62.47-7.59a1,1,0,0,1-.5-1.35,1,1,0,0,1,1.36-.41c22.55,10.08,42.19,10.43,58,6.32-1.35-1.86-1.68-4.89-4.28-6.49l1.45,4.31-5.74-5.74a43.14,43.14,0,0,1,2.91,8.57c-5.74-7.19-10-11.5-18.62-14.41l3.61,6.47c-3.25-3.26-7.69-4.59-11.67-6.62a19.17,19.17,0,0,1,3.81,4.41c-5.69-1.48-10-4.33-15.69-3-5.71,0-12.83-1.56-17.06,4.13-2.33,5.49,3.68,16.41,16.48,15.08C1072,994.32,1067,993.57,1063.42,994.27Zm23.13-22.73a5.05,5.05,0,0,0-1.21-.6ZM1060.46,980c26.49,13.75,50,14.63,77.68,1.3l-3.56-.75C1116.81,989.68,1091.21,993.74,1060.46,980Z" transform="translate(0.47 -939.74)"/>
  <path class="cls-2" d="M1235.35,983.66a.71.71,0,0,0-.63-.29c-.78.11-4.08.71-5,.79-1.24.21-3.44.62-3.58.64s0,.24.08.25a26.3,26.3,0,0,0,3-.43c.32.34-3.82.82-3.82.82s-4.56.9-4.4.59c.68-.1,3.75-.71,4.42-.85a1,1,0,0,0,.41-.15c0-.11-.05-.18-.14-.19-1.07.16-14.76,2.45-15.68,2.64a3,3,0,0,1-1.33-.17,1.46,1.46,0,0,0-.16-.19c-.1-.08-.25-.08-.3-.22s0-.31,0-.47c-.31-.18-.75-.22-.89-.62a2.63,2.63,0,0,1,.37-1.27s0,0,0-.06l0,0,0-.06a.5.5,0,0,1,.12-.13,2.85,2.85,0,0,1,1.9-1c-.28-.29-1.55-.23-2.43-.13-.53,0-1,.23-1.56.24a2.52,2.52,0,0,1,1.06-.53,5.39,5.39,0,0,1,2.18-.11,5.78,5.78,0,0,0-2-.18,7.17,7.17,0,0,0-3.23,1.1,7.27,7.27,0,0,0-2.41,2.43,3.81,3.81,0,0,0-.57,2.37,3.66,3.66,0,0,1-1-3,5,5,0,0,1,.09-1.29c.08-.43.14-.86.22-1.29,0-.19.08-.38.12-.56a21.1,21.1,0,0,1,.42-2.2,5.09,5.09,0,0,1,.92-2c-.25,0-.38.3-.51.51a11.31,11.31,0,0,0-1,3,2.07,2.07,0,0,1-.2.56,8.52,8.52,0,0,0,0-1.82,2.29,2.29,0,0,1,.41-1.71,2,2,0,0,1,.77-.46,1.62,1.62,0,0,0-1.27,1.16,24.24,24.24,0,0,0-.16,2.55c-.09,1.31-.29.66-.57,1.93a10.48,10.48,0,0,0-.4,3.1,4.91,4.91,0,0,0,.47,1.48,7.36,7.36,0,0,1-2.53-2.25,14.35,14.35,0,0,0-2.33-2.69,25.88,25.88,0,0,0-3-1.87c-.59-.34-1.21-.61-1.79-1-.83-.43-1.58-1-2.44-1.4a41.21,41.21,0,0,0-4.64-2.23c-1-.28-1.84-.74-2.81-1-1.48-.42-2.75-1.39-4.27-1.69a10.18,10.18,0,0,0-2.24-.37,6.31,6.31,0,0,1,3.74,1.94,13.22,13.22,0,0,1,3,4.52,38.26,38.26,0,0,1,1.36,4.21c-.35-.43-.62-.94-1-1.34-.75-.8-1.41-1.71-2.11-2.58a26.32,26.32,0,0,0-4.25-4.38c-.68-.58-1.39-1.12-2.09-1.68a8.09,8.09,0,0,0-1.38-1.11c-.73-.45-1.45-.9-2.2-1.3a11.47,11.47,0,0,0-2.56-.91,3.24,3.24,0,0,1-1.57-.78c-.65-.74-1.68-1.08-2.11-2a10.86,10.86,0,0,0-1.85-2.87,20.41,20.41,0,0,1,1.12,5,5.68,5.68,0,0,0,.48,1.63c.28.89.62,1.74.91,2.63a14.26,14.26,0,0,1-.56-1.41,19.15,19.15,0,0,0-1.39-2.84,11.21,11.21,0,0,0-2-2.46,22.15,22.15,0,0,1,2.36,3.89,3.88,3.88,0,0,1,.5,1.12,9.46,9.46,0,0,1-.57-.92,15.59,15.59,0,0,0-1.75-2.29c-.77-.86-1.83,1.28-2.64.5a3.34,3.34,0,0,0-1.52-.92,6.83,6.83,0,0,1-1.3-.43c-.52-.14-.86-.67-1.4-.75a1.15,1.15,0,0,1-.21.33,2.69,2.69,0,0,1-1.17-.46c-.67-.23-4.42-1.21-5.45-1.75-.32-.21-.71-.06-1.06-.06s-.93-.23-1.42-.24a15.56,15.56,0,0,1-3-.44,7,7,0,0,1,1.91,1.86,8.23,8.23,0,0,1,1.48,2.15,29.35,29.35,0,0,1,1.36,5.11.61.61,0,0,1,0,.14,5.41,5.41,0,0,0-.45-1.24,13.35,13.35,0,0,0-1.29-2.49,18.44,18.44,0,0,0-1.79-2.46c-.77-.79-1.72-1.27-2.57-2a3.2,3.2,0,0,0-2.25-.93,4.69,4.69,0,0,1,2.52,3,15.51,15.51,0,0,0-1.73-.74c-.4-.18-1.83-.5-5.24-3.22-.26.07,1.87,2,2.89,3a49.49,49.49,0,0,1-12.16-8.91c7.31,13.59,11.71,13.11,11.71,13.11l-2.1.46c1.09,1,2.39,2.18,3.78,3.35,0,0,0,0,0,.06a12,12,0,0,0,1,1.21c.73.73,1.28,1.65,2.08,2.32a12.93,12.93,0,0,1,1.19,1.26c.2.18.07.54.28.71.38.36.84.61,1.21,1a28.32,28.32,0,0,0,2.33,1.75c.94.47,1.7,1.25,2.61,1.78a14.19,14.19,0,0,1,1.67.9,3.18,3.18,0,0,0,1.37.66c.32,0,.51.29.78.43s.42.06.63.11c.49.31,1,.59,1.53.85a6.93,6.93,0,0,1,1.16.33l-.51.23a10,10,0,0,1,1.34.18c.13.14.23.31.37.45.32.11.67.1,1,.24.75.18,1.54.22,2.29.41-.63.35-1.34,0-2,.13.22,0,.45,0,.67.08s.13.27.25.33c.27.08.55.08.82.16s.34.27.54.37c.41.1.86.09,1.26.23a7.86,7.86,0,0,0,2.46.55,17.87,17.87,0,0,0,2.74.5,3.44,3.44,0,0,1,1.88.28c.52.18,1,.5,1.51.63a11.38,11.38,0,0,0,1.15.29,9.94,9.94,0,0,1,1.79.35,7.32,7.32,0,0,1,1.46.32c.53.13,1.09.15,1.64.27a2.63,2.63,0,0,0,1.07.22,5.58,5.58,0,0,1,1.29.11c1,0,1.93,0,2.88.08a5.37,5.37,0,0,1,1.39.1c1.68,0,3.36.12,5,0a10.16,10.16,0,0,0,3.27-.91,6.83,6.83,0,0,1,1.06-.41,16.31,16.31,0,0,0,1.65-.67,9.62,9.62,0,0,0-.26,2.13,3.9,3.9,0,0,1-.5,2l.26-.17a10.87,10.87,0,0,0-.32,1.95,15.24,15.24,0,0,0,1.27-3.16,4.67,4.67,0,0,0-.07,2c.7-.87.75-2.21,1.68-2.9s1.77-1.05,2.61-1.67c0,.3,0,.61,0,.91.07-.13.14-.26.2-.39,0,.45,0,.9,0,1.35a5.16,5.16,0,0,0,.56,1.3c0-.41-.28-.77-.19-1.18s-.09-.69,0-1,.31-.39.48-.57a1.61,1.61,0,0,0,.2,1.26c.16-.09.21-.3.3-.46a4.29,4.29,0,0,1,1.26-1.8c.61-.4,1.21-.82,1.81-1.23-.41,1.27-1.63,2-2.24,3.11.36-.27.72-.55,1.09-.81a7.93,7.93,0,0,1,1.36-.42c.06.14.06.39.26.39s.39-.09.55-.24a4.56,4.56,0,0,1,.59-.42,2.69,2.69,0,0,1,.62-.34,2.85,2.85,0,0,1,.39-.11l.19-.06c.09,0,.19,0,.28,0a2.46,2.46,0,0,0,0,.28,2.58,2.58,0,0,0,0,.48c0,.22,0,.42.08.63a1.18,1.18,0,0,0,.07.2.29.29,0,0,1,0,.09,1.55,1.55,0,0,1,.14-.51,2,2,0,0,1,.24-.46c.09-.13.22-.22.31-.35s.16-.27.29-.26.14.07.2.13a1,1,0,0,0,.19.16,3.33,3.33,0,0,1,1.35-1.12c.37-.14.65-.45,1-.62a3.82,3.82,0,0,0,1.39,0c-.07.25-.37.49-.53.69a6.85,6.85,0,0,0-.71,1.72,13.51,13.51,0,0,1,1.13-1.91,3.86,3.86,0,0,1,1.59-.7,3.24,3.24,0,0,0,1.65-1.06c.27-.29.51-.7.93-.75,1.13-.21,2.26-.38,3.36-.7,1.34-.39,5.58-1.44,6.34-1.6.48-.1,1-.16,1.43-.3s3.55-.7,4.54-.87c.38-.07,3.48-.78,3.92-.85a2.18,2.18,0,0,0,1.53-.65,1.52,1.52,0,0,0,.28-.7A.71.71,0,0,0,1235.35,983.66Zm-39.67,6.67-2,0-2.18,0c-1.88,0-3.22-.11-5.09-.27-2.26-.18-4.83-.42-7.07-.73-.76-.11-1.52-.23-2.28-.37-2.86-.52-5.7-1.17-8.5-1.95a81,81,0,0,1-8.41-2.76c-3-1.19-6-2.31-8.93-3.54-.86-.35-1.72-.71-2.57-1.09a88.77,88.77,0,0,1-8.09-4.08c-.6-.34-1.2-.68-1.8-1,3.58,1.87,7.23,3.54,10.92,5.1,3,1.27,6,2.41,9.11,3.5,4.13,1.46,8.28,2.82,12.51,3.89a98.64,98.64,0,0,0,13.12,2.29c1.27.15,2.54.27,3.81.38,2.66.22,4.9.36,7.56.53l4.89.32Zm8.21-4.4a2.92,2.92,0,0,0-.64,1.69,2.74,2.74,0,0,1,0-1.5,3.06,3.06,0,0,1,2.63-2A3.94,3.94,0,0,0,1203.89,985.93Z" transform="translate(0.47 -939.74)"/>
  <path class="cls-2" d="M1066.35,985.66a.71.71,0,0,0-.63-.29c-.78.11-4.08.71-5,.79-1.24.21-3.44.62-3.58.64s0,.24.08.25a26.3,26.3,0,0,0,3-.43c.32.34-3.82.82-3.82.82s-4.56.9-4.4.59c.68-.1,3.75-.71,4.42-.85a1,1,0,0,0,.41-.15c0-.11-.05-.18-.14-.19-1.07.16-14.76,2.45-15.68,2.64a3,3,0,0,1-1.33-.17,1.46,1.46,0,0,0-.16-.19c-.1-.08-.25-.08-.3-.22s0-.31,0-.47c-.31-.18-.75-.22-.89-.62a2.63,2.63,0,0,1,.37-1.27s0,0,0-.06l0,0,0-.06a.5.5,0,0,1,.12-.13,2.85,2.85,0,0,1,1.9-1c-.28-.29-1.55-.23-2.43-.13-.53,0-1,.23-1.56.24a2.52,2.52,0,0,1,1.06-.53,5.39,5.39,0,0,1,2.18-.11,5.78,5.78,0,0,0-2-.18,7.17,7.17,0,0,0-3.23,1.1,7.27,7.27,0,0,0-2.41,2.43,3.81,3.81,0,0,0-.57,2.37,3.66,3.66,0,0,1-1-3,5,5,0,0,1,.09-1.29c.08-.43.14-.86.22-1.29,0-.19.08-.38.12-.56a21.1,21.1,0,0,1,.42-2.2,5.09,5.09,0,0,1,.92-2c-.25,0-.38.3-.51.51a11.31,11.31,0,0,0-1,3,2.07,2.07,0,0,1-.2.56,8.52,8.52,0,0,0,0-1.82,2.29,2.29,0,0,1,.41-1.71,2,2,0,0,1,.77-.46,1.62,1.62,0,0,0-1.27,1.16,24.24,24.24,0,0,0-.16,2.55c-.09,1.31-.29.66-.57,1.93a10.48,10.48,0,0,0-.4,3.1,4.91,4.91,0,0,0,.47,1.48,7.36,7.36,0,0,1-2.53-2.25,14.35,14.35,0,0,0-2.33-2.69,25.88,25.88,0,0,0-3-1.87c-.59-.34-1.21-.61-1.79-1-.83-.43-1.58-1-2.44-1.4a41.21,41.21,0,0,0-4.64-2.23c-1-.28-1.84-.74-2.81-1-1.48-.42-2.75-1.39-4.27-1.69a10.18,10.18,0,0,0-2.24-.37,6.31,6.31,0,0,1,3.74,1.94,13.22,13.22,0,0,1,3,4.52,38.26,38.26,0,0,1,1.36,4.21c-.35-.43-.62-.94-1-1.34-.75-.8-1.41-1.71-2.11-2.58a26.32,26.32,0,0,0-4.25-4.38c-.68-.58-1.39-1.12-2.09-1.68a8.09,8.09,0,0,0-1.38-1.11c-.73-.45-1.45-.9-2.2-1.3a11.47,11.47,0,0,0-2.56-.91,3.24,3.24,0,0,1-1.57-.78c-.65-.74-1.68-1.08-2.11-2a10.86,10.86,0,0,0-1.85-2.87,20.41,20.41,0,0,1,1.12,5,5.68,5.68,0,0,0,.48,1.63c.28.89.62,1.74.91,2.63a14.26,14.26,0,0,1-.56-1.41,19.15,19.15,0,0,0-1.39-2.84,11.21,11.21,0,0,0-2-2.46,22.15,22.15,0,0,1,2.36,3.89,3.88,3.88,0,0,1,.5,1.12,9.46,9.46,0,0,1-.57-.92,15.59,15.59,0,0,0-1.75-2.29c-.77-.86-1.83,1.28-2.64.5a3.34,3.34,0,0,0-1.52-.92,6.83,6.83,0,0,1-1.3-.43c-.52-.14-.86-.67-1.4-.75a1.15,1.15,0,0,1-.21.33,2.69,2.69,0,0,1-1.17-.46c-.67-.23-4.42-1.21-5.45-1.75-.32-.21-.71-.06-1.06-.06s-.93-.23-1.42-.24a15.56,15.56,0,0,1-3-.44,7,7,0,0,1,1.91,1.86,8.23,8.23,0,0,1,1.48,2.15,29.35,29.35,0,0,1,1.36,5.11.61.61,0,0,1,0,.14,5.41,5.41,0,0,0-.45-1.24,13.35,13.35,0,0,0-1.29-2.49,18.44,18.44,0,0,0-1.79-2.46c-.77-.79-1.72-1.27-2.57-2a3.2,3.2,0,0,0-2.25-.93,4.69,4.69,0,0,1,2.52,3,15.51,15.51,0,0,0-1.73-.74c-.4-.18-1.83-.5-5.24-3.22-.26.07,1.87,2,2.89,3A49.49,49.49,0,0,1,953.85,961c7.31,13.59,11.71,13.11,11.71,13.11l-2.1.46c1.09,1,2.39,2.18,3.78,3.35,0,0,0,0,0,.06a12,12,0,0,0,1,1.21c.73.73,1.28,1.65,2.08,2.32a12.93,12.93,0,0,1,1.19,1.26c.2.18.07.54.28.71.38.36.84.61,1.21,1a28.32,28.32,0,0,0,2.33,1.75c.94.47,1.7,1.25,2.61,1.78a14.19,14.19,0,0,1,1.67.9,3.18,3.18,0,0,0,1.37.66c.32,0,.51.29.78.43s.42.06.63.11c.49.31,1,.59,1.53.85a6.93,6.93,0,0,1,1.16.33l-.51.23a10,10,0,0,1,1.34.18c.13.14.23.31.37.45.32.11.67.1,1,.24.75.18,1.54.22,2.29.41-.63.35-1.34,0-2,.13.22,0,.45,0,.67.08s.13.27.25.33.55.08.82.16.34.27.54.37c.41.1.86.09,1.26.23a7.86,7.86,0,0,0,2.46.55,17.87,17.87,0,0,0,2.74.5,3.44,3.44,0,0,1,1.88.28c.52.18,1,.5,1.51.63a11.38,11.38,0,0,0,1.15.29,9.94,9.94,0,0,1,1.79.35,7.32,7.32,0,0,1,1.46.32c.53.13,1.09.15,1.64.27a2.63,2.63,0,0,0,1.07.22,5.58,5.58,0,0,1,1.29.11c1,0,1.93,0,2.88.08a5.37,5.37,0,0,1,1.39.1c1.68,0,3.36.12,5,0a10.16,10.16,0,0,0,3.27-.91,6.83,6.83,0,0,1,1.06-.41,16.31,16.31,0,0,0,1.65-.67,9.62,9.62,0,0,0-.26,2.13,3.9,3.9,0,0,1-.5,2l.26-.17a10.87,10.87,0,0,0-.32,1.95,15.24,15.24,0,0,0,1.27-3.16,4.67,4.67,0,0,0-.07,2c.7-.87.75-2.21,1.68-2.9s1.77-1.05,2.61-1.67c0,.3,0,.61,0,.91.07-.13.14-.26.2-.39,0,.45,0,.9,0,1.35a5.16,5.16,0,0,0,.56,1.3c0-.41-.28-.77-.19-1.18s-.09-.69,0-1,.31-.39.48-.57a1.61,1.61,0,0,0,.2,1.26c.16-.09.21-.3.3-.46a4.29,4.29,0,0,1,1.26-1.8c.61-.4,1.21-.82,1.81-1.23-.41,1.27-1.63,2-2.24,3.11.36-.27.72-.55,1.09-.81a7.93,7.93,0,0,1,1.36-.42c.06.14.06.39.26.39s.39-.09.55-.24a4.56,4.56,0,0,1,.59-.42,2.69,2.69,0,0,1,.62-.34,2.85,2.85,0,0,1,.39-.11l.19-.06c.09,0,.19,0,.28,0a2.46,2.46,0,0,0,0,.28,2.58,2.58,0,0,0,0,.48c0,.22,0,.42.08.63a1.18,1.18,0,0,0,.07.2.29.29,0,0,1,0,.09,1.55,1.55,0,0,1,.14-.51,2,2,0,0,1,.24-.46c.09-.13.22-.22.31-.35s.16-.27.29-.26.14.07.2.13a1,1,0,0,0,.19.16,3.33,3.33,0,0,1,1.35-1.12c.37-.14.65-.45,1-.62a3.82,3.82,0,0,0,1.39,0c-.07.25-.37.49-.53.69a6.85,6.85,0,0,0-.71,1.72,13.51,13.51,0,0,1,1.13-1.91,3.86,3.86,0,0,1,1.59-.7,3.24,3.24,0,0,0,1.65-1.06c.27-.29.51-.7.93-.75,1.13-.21,2.26-.38,3.36-.7,1.34-.39,5.58-1.44,6.34-1.6.48-.1,1-.16,1.43-.3s3.55-.7,4.54-.87c.38-.07,3.48-.78,3.92-.85a2.18,2.18,0,0,0,1.53-.65,1.52,1.52,0,0,0,.28-.7A.71.71,0,0,0,1066.35,985.66Zm-39.67,6.67-2,0-2.18,0c-1.88,0-3.22-.11-5.09-.27-2.26-.18-4.83-.42-7.07-.73-.76-.11-1.52-.23-2.28-.37-2.86-.52-5.7-1.17-8.5-1.95a81,81,0,0,1-8.41-2.76c-3-1.19-6-2.31-8.93-3.54-.86-.35-1.72-.71-2.57-1.09a88.77,88.77,0,0,1-8.09-4.08c-.6-.34-1.2-.68-1.8-1,3.58,1.87,7.23,3.54,10.92,5.1,3,1.27,6.05,2.41,9.11,3.5,4.13,1.46,8.28,2.82,12.51,3.89a98.64,98.64,0,0,0,13.12,2.29c1.27.15,2.54.27,3.81.38,2.66.22,4.9.36,7.56.53l4.89.32Zm8.21-4.4a2.92,2.92,0,0,0-.64,1.69,2.74,2.74,0,0,1,0-1.5,3.06,3.06,0,0,1,2.63-2A3.94,3.94,0,0,0,1034.89,987.93Z" transform="translate(0.47 -939.74)"/>
  <path class="cls-2" d="M1339.58,954.73c-4.31-1.45-8.57-2.9-13.56-2.23-11.42-4.36-20-1.58-34.17,4l9.19-6.34c-6.38.68-10.64,2.08-14.88,6.32,0-1.43,0-1.43-.75-2.16l-.65,3.56-2.88-2.88c1.17,3.48-1,3.66-1.41,5.51,21.38-6.29,41.07-3.53,62.47,7.59a1,1,0,0,1,.5,1.35,1,1,0,0,1-1.36.41c-22.55-10.08-42.19-10.43-58-6.32,1.35,1.86,1.68,4.89,4.28,6.49l-1.45-4.31,5.74,5.74a43.14,43.14,0,0,1-2.91-8.57c5.74,7.19,10,11.5,18.62,14.41l-3.61-6.47c3.25,3.26,7.69,4.59,11.67,6.62a19.17,19.17,0,0,1-3.81-4.41c5.69,1.48,10,4.33,15.69,3,5.71,0,12.83,1.56,17.06-4.13,2.33-5.49-3.68-16.41-16.48-15.08C1331,954.68,1336,955.43,1339.58,954.73Zm-23.13,22.73a5.05,5.05,0,0,0,1.21.6Zm26.09-8.45c-26.49-13.75-50-14.63-77.68-1.3l3.56.75C1286.19,959.32,1311.79,955.26,1342.54,969Z" transform="translate(0.47 -939.74)"/>
  <path class="cls-1" d="M1349.16,992.21c12.8,1.33,18.81-9.59,16.48-15.08-4.23-5.69-11.35-4.18-17.06-4.13-5.69-1.38-10,1.47-15.68,3a18.9,18.9,0,0,1,3.8-4.41c-4,2-8.41,3.36-11.67,6.62l3.61-6.47c-8.57,2.91-12.88,7.22-18.62,14.41a43.14,43.14,0,0,1,2.91-8.57l-5.74,5.74,1.45-4.31c-2.6,1.6-2.93,4.63-4.28,6.49,15.78,4.11,35.43,3.76,58-6.32a1,1,0,0,1,1.35.41,1,1,0,0,1-.5,1.35c-21.4,11.12-41.09,13.88-62.46,7.59.45,1.85,2.58,2,1.4,5.51l2.88-2.88.65,3.56c.73-.73.73-.73.75-2.16,4.24,4.24,8.5,5.64,14.89,6.32l-9.2-6.34c14.21,5.59,22.75,8.37,34.18,4,5,.67,9.24-.78,13.55-2.23C1356.27,993.57,1351.26,994.32,1349.16,992.21Zm-11.25-21.27a5.24,5.24,0,0,0-1.21.6Zm-49.24,9.6-3.55.75c27.66,13.33,51.18,12.45,77.67-1.3C1332,993.74,1306.44,989.68,1288.67,980.54Z" transform="translate(0.47 -939.74)"/>
  <g>
    <path class="cls-2" d="M1238.76,956.61s0,0,0-.05Z" transform="translate(0.47 -939.74)"/>
    <path class="cls-2" d="M1230.71,964.1c2.44,8.17,11,11.15,20.65,10.68a21.78,21.78,0,0,1-11.1-9l-.2-.08c-3-1-5.53-4.83-5.44-4.83l.52.5a22.38,22.38,0,0,0,2.39,2.17,7.24,7.24,0,0,0,1.28.84c.63.28.82,0,1.11-.49.12-.21.33-.2.55-.14.4.11.85.3,1,0a.77.77,0,0,0,.09-.38.71.71,0,0,1-.13.35c-.17.21-.55,0-1-.14a.61.61,0,0,0-.76.16c-.13.23-.24.4-.45.36-1.77-1-.47-.91-.68-1.39a8,8,0,0,0,3.34-.47,3.9,3.9,0,0,1,1.69,0,3.55,3.55,0,0,0-1.72-.1c-.91.1-2.19.66-3.46.28a5.71,5.71,0,0,1-2.17-1.51,3.51,3.51,0,0,0-1.62-1.2,2.42,2.42,0,0,1,1.47.77,3.38,3.38,0,0,0,1.78,1l.17,0h0a5.77,5.77,0,0,0-.9-.51,1.15,1.15,0,0,1-.62-.59,1.6,1.6,0,0,0,.61.39,3,3,0,0,1,.77.28,0,0,0,0,0,0,0,6.7,6.7,0,0,0,2,.57,2,2,0,0,0,1.13-.2,2.06,2.06,0,0,1-1.11.05,8.84,8.84,0,0,1-2.16-.8.76.76,0,0,0,0-.11,2.82,2.82,0,0,0,2.29.52,2.45,2.45,0,0,0,1-.51,2.8,2.8,0,0,1-1,.37,2.65,2.65,0,0,1-1.56-.29,2.34,2.34,0,0,1-.76-.52c-.17-.18-.17-.44-.31-.62a3.11,3.11,0,0,0,.43.5,1.93,1.93,0,0,0,.65.42,2.45,2.45,0,0,1-.55-.52,1.69,1.69,0,0,1-.21-.31,6.54,6.54,0,0,0-.45-.71c-.18-.23-.42-.21-.68-.23a1.18,1.18,0,0,1-.67-.28c-.47-.42-.64-1-.91-1.09,0,0,.2,0,.5.28s.56.67,1,.72a.76.76,0,0,1,.59.38s0,0,0-.07a1.12,1.12,0,0,0-.59-.56c-.6-.29-.52-.83-.86-1.08a1.93,1.93,0,0,0-.59-.3.93.93,0,0,1,.77.2,5.8,5.8,0,0,0,1,.85c.21.09.44.18.72.27a3.73,3.73,0,0,1,2.12,1,.6.6,0,0,1,0,.86.65.65,0,0,0,.16-1,3.4,3.4,0,0,0-2.16-1.19,7.87,7.87,0,0,1-.76-.28c.5,0,1.09-.13,1.76-.22a7,7,0,0,1,3.69.62c.39.29.71.57.76.83a.24.24,0,0,1-.29.17.26.26,0,0,0,.34-.17,1.9,1.9,0,0,0-.72-.94,6.27,6.27,0,0,0-3.81-.8c-.77.1-1.41.2-1.92.25a1.79,1.79,0,0,1-.76-.46,4.39,4.39,0,0,0,.65,0l.46-.1a2.24,2.24,0,0,1,1.72-.08,1,1,0,0,0-.43-.28,2.69,2.69,0,0,0-1.36.07l-.46.11v0a1.84,1.84,0,0,1-.82-.09c-.37-.1-.49,0-.49,0a.45.45,0,0,1,.45-.15.62.62,0,0,0,.63-.19c.09-.14-.07-.55,0-.61a2.5,2.5,0,0,1,.58-.43c.8-.34,1.8-.38,2.23-.94a1.54,1.54,0,0,0,.33-1,1.83,1.83,0,0,1-.43.87c-.43.45-1.33.39-2.26.78a2.39,2.39,0,0,0-.52.37c-.16-.73-.29-1.5-.42-2.28a28.14,28.14,0,0,1,2.48-5.07c.49-.8,1.3-2.1.9-3.06a5,5,0,0,0-.36-.63c-.58,1-1.16,2-1.75,3.07a29.65,29.65,0,0,0-2.5,6.22c-.29.47-.62,1-1,1.61a8.56,8.56,0,0,0-.08-1,3.12,3.12,0,0,1,.36-1.13.87.87,0,0,0,.29-.1.82.82,0,0,1-.26.05,3.81,3.81,0,0,0,.36-1,1,1,0,0,0-.22-.94,1,1,0,0,1,.08.9,5,5,0,0,1-.52,1l-.47,0a1.19,1.19,0,0,0-.9.74,1.68,1.68,0,0,0,.23,1.42.75.75,0,0,0,.07.12,1.68,1.68,0,0,0-.33.26c-.41.4-.27,1.19,0,1.85l-.15,0c-.47.07-.78.55-1,1.12a2.44,2.44,0,0,0-1.75,1.3c-.52,2.17-1.72,1.74-1.6,1.95,0,0,.19.08.63,0s.93-.86,1.24-1.77a2.38,2.38,0,0,1,1.43-1.21,4.17,4.17,0,0,0-.08.49,4.24,4.24,0,0,1-.72,2c0,.06.53-.13.84-1.14v.18c0,.18,0,.37,0,.56a10.9,10.9,0,0,0-.34,1.74,5,5,0,0,1-2.42,1.49c-.61.28-.74.55-.72.56s.2-.15.8-.38a5.14,5.14,0,0,0,2.29-1.17A8.46,8.46,0,0,0,1230.71,964.1Zm6.22-15.63,1.82-3,.21.32s-.09.11-1.81,2.92a21.07,21.07,0,0,0-1.56,3.19l0-.18-.29.43A28.56,28.56,0,0,1,1236.93,948.47Zm-5,9.75-.26,0a1.28,1.28,0,0,1,.45-.4Zm.54-1.19,0,0,0,0Zm.67-4.15.39-.07a3.18,3.18,0,0,0-.33,1c.08.66.11,1.14.12,1.5l-.27.52a2.27,2.27,0,0,0-.26-1c.06,0,.11-.06.1-.07s0,0-.12,0a.75.75,0,0,0-.07-.12A1.16,1.16,0,0,1,1233.11,952.88Zm-.84,2.49a1.74,1.74,0,0,1,.24-.28c.38.77.26,1.3,0,1.57l-.14.18C1232.13,956.26,1232,955.71,1232.27,955.37Zm-.21,1.92.15,0,.07.13c0,.11-.1.21-.14.32a1.48,1.48,0,0,0-.67.52l-.11,0A1.21,1.21,0,0,1,1232.06,957.29Zm-.74,1.12h0a1.17,1.17,0,0,0,0,.11A.3.3,0,0,1,1231.32,958.41Zm.22-.06h0a1,1,0,0,1,.29,0c-.21.51-.4,1-.57,1.55A3.26,3.26,0,0,1,1231.54,958.35Z" transform="translate(0.47 -939.74)"/>
    <path class="cls-2" d="M1284.63,978.45a23.83,23.83,0,0,0,.85-9.3c-.14-1.37-.23-3.93-1.65-4.7s-4,.8-5.14,1.7a39.06,39.06,0,0,1-5.82,3.89,39.9,39.9,0,0,1-7.94,11.34s4.89-7,6.24-10.44a14.17,14.17,0,0,0-5.17,5.11c-1.41,2.55-1.81,4.53-4.2,6.44a10.07,10.07,0,0,0,2.67-4.66,10.88,10.88,0,0,1,3.85-5.28,29,29,0,0,1,2.79-1.58c-1.15.57-2.33,1.1-3.54,1.58-1.73.85-4.22,2.14-5.25,4.83-1.43,3.74-3.21,6.7-5.12,7.92a.41.41,0,0,1-.11.07,11.07,11.07,0,0,0,3.21-4.72c.92-2.77,1.43-5.27,3-6.58-13.76,4.22-29.36,2.94-32.64-8.75l.23,2.8c.64,4.21,2.88,8.55,5.06,12.16l0,0a28.52,28.52,0,0,0,3.24,2.71c10.33,7.69,23.31,5.7,30.22,1.75,7.41-3.91,9.38-9.22,9.43-9.07.13-.1-1.72,5.39-9.2,9.49-7,4.12-20.24,6.27-30.85-1.62-.44-.31-.85-.63-1.26-1a38.11,38.11,0,0,0,8.52,8c7.22,5,17.14,7.69,25.33,3.46A26.5,26.5,0,0,0,1284,980.31a13,13,0,0,1-6.45,2.49A11,11,0,0,0,1284.63,978.45Z" transform="translate(0.47 -939.74)"/>
  </g>
  <path class="cls-1" d="M1372.42,987.27c4.31,1.45,8.57,2.9,13.56,2.23,11.42,4.36,20,1.58,34.17-4l-9.19,6.34c6.38-.68,10.64-2.08,14.88-6.32,0,1.43,0,1.43.75,2.16l.65-3.56,2.88,2.88c-1.17-3.48,1-3.66,1.41-5.51-21.38,6.29-41.07,3.53-62.47-7.59a1,1,0,0,1-.5-1.35,1,1,0,0,1,1.36-.41c22.55,10.08,42.19,10.43,58,6.32-1.35-1.86-1.68-4.89-4.28-6.49l1.45,4.31-5.74-5.74a43.14,43.14,0,0,1,2.91,8.57c-5.74-7.19-10-11.5-18.62-14.41l3.61,6.47c-3.25-3.26-7.69-4.59-11.67-6.62a19.17,19.17,0,0,1,3.81,4.41c-5.69-1.48-10-4.33-15.69-3-5.71,0-12.83-1.56-17.06,4.13-2.33,5.49,3.68,16.41,16.48,15.08C1381,987.32,1376,986.57,1372.42,987.27Zm23.13-22.73a5.05,5.05,0,0,0-1.21-.6ZM1369.46,973c26.49,13.75,50,14.63,77.68,1.3l-3.56-.75C1425.81,982.68,1400.21,986.74,1369.46,973Z" transform="translate(0.47 -939.74)"/>
  <g>
    <path class="cls-2" d="M1458.87,966.72c1.36.24,2.71.54,4.05.91a40.33,40.33,0,0,0-4-1.16,44.47,44.47,0,0,0-9.76-1.16,55,55,0,0,0-19.39,3.55,70.73,70.73,0,0,0-9.08,4.06c-1.47.78-2.92,1.62-4.31,2.49-.73.45-1.44.91-2.1,1.37s-1.39,1-2.08,1.49a1.67,1.67,0,0,0-.29,2.33,1.72,1.72,0,0,0,.72.53,1.64,1.64,0,0,0,1.61-.24l.07-.06,0,0c.46-.41,1.05-.9,1.79-1.47s1.25-1,1.91-1.43c1.29-.91,2.63-1.81,4-2.65a69.77,69.77,0,0,1,8.5-4.46,53.76,53.76,0,0,1,18.64-4.62A43.32,43.32,0,0,1,1458.87,966.72Z" transform="translate(0.47 -939.74)"/>
    <path class="cls-2" d="M1449.18,964.52a44.72,44.72,0,0,1,9.93,1.19,43.06,43.06,0,0,1,5.46,1.68,40.6,40.6,0,0,1,3.88,1.69A52.89,52.89,0,0,1,1484,981a52.34,52.34,0,0,0-16-10.84c-.44-.19-.89-.37-1.34-.54a42.1,42.1,0,0,0-17.37-2.69,53,53,0,0,0-18,4.38c1.5,1.89,5.46,5.31,14.12,4.47,5.18-.5,11.52.38,17.57,2.1a18.85,18.85,0,0,0-1.68-2.1,17.38,17.38,0,0,0-2.45-2.16,13.28,13.28,0,0,0-2.91-1.61,9.59,9.59,0,0,1,3.25,1,13.29,13.29,0,0,1,2.85,2,16.15,16.15,0,0,1,2.89,3.44c2,.65,4,1.39,5.9,2.19a14.46,14.46,0,0,0-.71-1.42,13.13,13.13,0,0,0-2-2.69,9.52,9.52,0,0,1,2.51,2.31,13,13,0,0,1,1.48,2.39,32.38,32.38,0,0,1,9.52,6.18c6.5,6.71,9.62,14,15.22,9.68,0,0-1.43-16.84-11.17-27.46a15.32,15.32,0,0,0-3.12.91,6.52,6.52,0,0,1,1.31-1.15,7.85,7.85,0,0,1,1-.61,39.8,39.8,0,0,0-6.88-5.54,21.5,21.5,0,0,0-4.46-.46,18.2,18.2,0,0,0-3.19.29,15.6,15.6,0,0,0-3.19.92,7.14,7.14,0,0,1,1.3-1.15A10.92,10.92,0,0,1,1470,962a13,13,0,0,1,3.39-1l.37-.05a45.4,45.4,0,0,0-14.93-4.22,20.58,20.58,0,0,0-3.35.94,17.83,17.83,0,0,0-2.9,1.37,15.06,15.06,0,0,0-2.68,2,7.1,7.1,0,0,1,.83-1.53,10.29,10.29,0,0,1,1.12-1.35,12.42,12.42,0,0,1,2-1.63,36.07,36.07,0,0,0-14.07,2.73c-.1.24-.19.49-.28.73a15.47,15.47,0,0,0-.76,3.24,7.06,7.06,0,0,1-.36-1.7,9.39,9.39,0,0,1,0-1.59c-3.7,1.92-6.35,4.57-7.37,7.75A55.41,55.41,0,0,1,1449.18,964.52Z" transform="translate(0.47 -939.74)"/>
  </g>
  <path class="cls-1" d="M1056.85,976.7a.69.69,0,0,0,.69.08c.7-.34,3.64-2,4.46-2.31,1.1-.59,3.06-1.68,3.19-1.73s-.06-.24-.15-.22a24.92,24.92,0,0,0-2.74,1.36c-.42-.22,3.36-2,3.36-2s4-2.29,4-1.94c-.61.3-3.33,1.85-3.92,2.2a.8.8,0,0,0-.34.27.16.16,0,0,0,.19.13c1-.49,13.23-7,14-7.45a3.2,3.2,0,0,1,1.32-.26,1.64,1.64,0,0,0,.22.14c.11,0,.26,0,.35.1s.12.3.16.45c.35.07.79,0,1,.3a2.8,2.8,0,0,1,0,1.32.22.22,0,0,1,0,.08v.1a.67.67,0,0,1-.08.17,2.8,2.8,0,0,1-1.49,1.53c.36.19,1.54-.26,2.35-.63.49-.22.91-.55,1.4-.72a2.66,2.66,0,0,1-.83.84,5.67,5.67,0,0,1-2,.78,5.62,5.62,0,0,0,1.92-.45,7.14,7.14,0,0,0,2.71-2.06,7.23,7.23,0,0,0,1.53-3.07,3.77,3.77,0,0,0-.21-2.42,3.61,3.61,0,0,1,1.87,2.5,4.72,4.72,0,0,1,.33,1.25c0,.44.14.86.2,1.3,0,.19,0,.38.06.57a19.75,19.75,0,0,1,.3,2.22,5.1,5.1,0,0,1-.23,2.21c.22-.12.26-.4.31-.64a11.14,11.14,0,0,0,0-3.16,2,2,0,0,1,0-.59,8.21,8.21,0,0,0,.56,1.74,2.27,2.27,0,0,1,.15,1.75,2,2,0,0,1-.59.67,1.58,1.58,0,0,0,.84-1.5,20.7,20.7,0,0,0-.65-2.46c-.32-1.28.07-.73-.06-2a10.26,10.26,0,0,0-.6-3.06,4.94,4.94,0,0,0-.91-1.26,7.36,7.36,0,0,1,3.11,1.34,14.1,14.1,0,0,0,3,1.81,24.59,24.59,0,0,0,3.44.83c.67.14,1.34.2,2,.36.92.16,1.82.47,2.75.57a43.78,43.78,0,0,0,5.11.65c1,0,2,.11,3,0,1.53-.07,3.05.45,4.58.26a10.47,10.47,0,0,0,2.24-.36,6.24,6.24,0,0,1-4.16-.66,13.33,13.33,0,0,1-4.3-3.33,41.12,41.12,0,0,1-2.61-3.56c.47.29.88.69,1.37,1,1,.52,1.89,1.17,2.82,1.78a27.31,27.31,0,0,0,5.41,2.82c.84.33,1.68.62,2.52.93a8.54,8.54,0,0,0,1.66.62c.83.2,1.66.4,2.5.54a11.77,11.77,0,0,0,2.72.05,3.3,3.3,0,0,1,1.73.25c.85.5,1.94.49,2.64,1.26a10.93,10.93,0,0,0,2.67,2.14,19.91,19.91,0,0,1-2.66-4.41,5.64,5.64,0,0,0-1-1.39c-.55-.76-1.14-1.46-1.69-2.22.36.36.65.78,1,1.17a19.58,19.58,0,0,0,2.21,2.25,11,11,0,0,0,2.66,1.72,21.59,21.59,0,0,1-3.47-3,4,4,0,0,1-.84-.9,7.79,7.79,0,0,1,.83.69,16.47,16.47,0,0,0,2.39,1.62c1,.57,1.33-1.8,2.35-1.3a3.39,3.39,0,0,0,1.73.38,7.84,7.84,0,0,1,1.37,0c.53,0,1,.37,1.56.28a1.18,1.18,0,0,1,.1-.38,2.53,2.53,0,0,1,1.25.07,55.93,55.93,0,0,1,5.73-.07c.37.1.69-.16,1-.27s1-.07,1.43-.22a16.12,16.12,0,0,1,3-.52,7.17,7.17,0,0,1-2.41-1.16,9,9,0,0,1-2.08-1.57,29.38,29.38,0,0,1-2.9-4.43l0-.13a5.92,5.92,0,0,0,.83,1,12.64,12.64,0,0,0,2,1.94,18.46,18.46,0,0,0,2.48,1.78c1,.51,2,.66,3.07,1.11a3.2,3.2,0,0,0,2.43.17,4.73,4.73,0,0,1-3.33-2,14.75,14.75,0,0,0,1.87.16c.44,0,1.9-.11,6,1.4.22-.15-2.39-1.27-3.68-2a49.62,49.62,0,0,1,14.33,4.62c-11.22-10.58-15.24-8.75-15.24-8.75l1.85-1.09c-1.36-.64-3-1.32-4.65-2a.14.14,0,0,0,0-.06,11.08,11.08,0,0,0-1.36-.81c-.93-.47-1.74-1.17-2.7-1.55a12.54,12.54,0,0,1-1.53-.83c-.25-.1-.24-.48-.5-.58-.46-.23-1-.31-1.45-.55a27.06,27.06,0,0,0-2.76-.92c-1-.16-2-.65-3-.87a14.94,14.94,0,0,1-1.87-.33,3.28,3.28,0,0,0-1.51-.2c-.31.11-.58-.11-.87-.16s-.42.08-.64.1a16.64,16.64,0,0,0-1.71-.33,6.1,6.1,0,0,1-1.21,0c.13-.12.28-.24.41-.38a9.77,9.77,0,0,1-1.33.26c-.17-.09-.32-.22-.49-.31a8.59,8.59,0,0,1-1,.08c-.77.07-1.52.28-2.3.33.49-.53,1.27-.42,1.86-.75l-.66.14c-.15,0-.21-.22-.35-.24s-.55.1-.82.11-.42-.15-.63-.18c-.42,0-.84.18-1.27.18a7.66,7.66,0,0,0-2.51.25,16.26,16.26,0,0,0-2.76.4,3.56,3.56,0,0,1-1.87.32c-.55,0-1.09-.16-1.64-.12a11.52,11.52,0,0,0-1.17.09,10.07,10.07,0,0,1-1.81.23,6.76,6.76,0,0,1-1.48.15c-.55,0-1.1.2-1.65.26a2.64,2.64,0,0,0-1.08.14,6.08,6.08,0,0,1-1.26.3c-.92.27-1.82.65-2.76.83a5.77,5.77,0,0,1-1.36.34c-1.57.57-3.22.94-4.76,1.62a10.39,10.39,0,0,0-2.81,1.9,6,6,0,0,1-.88.72c-.48.33-.89.78-1.35,1.16a10.11,10.11,0,0,0-.42-2.11,3.88,3.88,0,0,1-.15-2l-.19.24a11.5,11.5,0,0,0-.32-1.95,16.07,16.07,0,0,0-.2,3.4,4.62,4.62,0,0,0-.57-1.92c-.4,1,0,2.33-.68,3.28s-1.35,1.56-2,2.41c-.09-.29-.17-.58-.26-.87,0,.14-.05.28-.07.43-.13-.43-.27-.86-.38-1.29a5,5,0,0,0-1-1.06c.15.38.51.64.56,1.06s.3.62.28,1a1.76,1.76,0,0,1-.27.7,1.68,1.68,0,0,0-.59-1.14c-.13.14-.11.35-.14.53a4.38,4.38,0,0,1-.63,2.11c-.46.57-.89,1.15-1.33,1.74,0-1.34.92-2.39,1.14-3.66l-.77,1.11a7.9,7.9,0,0,1-1.16.83c-.11-.12-.18-.36-.37-.29s-.35.21-.45.4a6.36,6.36,0,0,1-.43.59,2.88,2.88,0,0,1-.47.51,3.39,3.39,0,0,1-.34.23l-.16.12c-.08.05-.19.05-.27.1a2.8,2.8,0,0,0-.06-.28,3.47,3.47,0,0,0-.13-.46,5,5,0,0,0-.28-.57.74.74,0,0,0-.12-.17s0,0-.06-.08a1.57,1.57,0,0,1,0,.53,2.18,2.18,0,0,1-.09.51c0,.16-.13.28-.18.43s-.06.3-.19.34a.38.38,0,0,1-.23-.06,1.09,1.09,0,0,0-.23-.09,3.37,3.37,0,0,1-.93,1.48c-.31.26-.48.63-.76.91a3.87,3.87,0,0,0-1.34.41,2.49,2.49,0,0,1,.29-.83,6.71,6.71,0,0,0,.13-1.85,13.2,13.2,0,0,1-.47,2.16,3.9,3.9,0,0,1-1.29,1.17,3.25,3.25,0,0,0-1.23,1.52c-.17.37-.27.83-.65,1-1,.55-2,1.07-3,1.72-1.14.79-4.84,3.13-5.51,3.52-.42.25-.85.45-1.26.74s-3.15,1.79-4,2.25c-.35.19-3.06,1.84-3.46,2s-1,.49-1.24,1.09a1.59,1.59,0,0,0,0,.76A.74.74,0,0,0,1056.85,976.7Zm35.54-18.83,1.91-.6,2.08-.65c1.79-.58,3.09-.91,4.92-1.36,2.2-.54,4.71-1.12,6.93-1.53.76-.14,1.52-.26,2.28-.37,2.88-.4,5.78-.69,8.69-.83a81.45,81.45,0,0,1,8.84,0c3.2.19,6.4.31,9.6.54.93.06,1.86.14,2.78.22,3,.28,6,.75,9,1.33.68.13,1.36.26,2,.41-4-.64-8-1.07-12-1.39-3.25-.26-6.5-.38-9.75-.45-4.37-.08-8.75-.06-13.09.25a99.3,99.3,0,0,0-13.18,2c-1.25.26-2.49.54-3.74.84-2.59.63-4.76,1.2-7.34,1.88-.83.21-3.91,1-4.73,1.24Zm-6.4,6.76a2.91,2.91,0,0,0,.07-1.8,2.7,2.7,0,0,1,.52,1.4,3.07,3.07,0,0,1-1.88,2.7A3.93,3.93,0,0,0,1086,964.63Z" transform="translate(0.47 -939.74)"/>
  <g>
    <path class="cls-1" d="M657.62,987.38c-1.36.22-2.74.39-4.12.48a40.9,40.9,0,0,0,4.15-.23,43.85,43.85,0,0,0,9.59-2.12,55.06,55.06,0,0,0,17.13-9.76,70.22,70.22,0,0,0,7.23-6.83c1.13-1.23,2.23-2.5,3.25-3.78q.81-1,1.53-2c.54-.73,1-1.37,1.46-2.1a1.65,1.65,0,0,0-.49-2.29,1.67,1.67,0,0,0-2.29.49.41.41,0,0,0,0,.09l0,0c-.3.54-.7,1.19-1.2,2s-.87,1.31-1.34,2c-.91,1.29-1.88,2.58-2.89,3.82a68.62,68.62,0,0,1-6.56,7,53.48,53.48,0,0,1-16.06,10.52A44,44,0,0,1,657.62,987.38Z" transform="translate(0.47 -939.74)"/>
    <path class="cls-1" d="M667.5,986.25a44.39,44.39,0,0,1-9.76,2.16,42.15,42.15,0,0,1-5.72.22c-1.41,0-2.82-.14-4.22-.31a53,53,0,0,1-18.57-6.17,52.21,52.21,0,0,0,18.68,5c.48,0,1,0,1.45.06a41.64,41.64,0,0,0,8.13-.56,43.17,43.17,0,0,0,9.15-2.63,52.91,52.91,0,0,0,15.5-10.07c-2-1.29-6.91-3.21-14.81.45-4.72,2.18-11,3.44-17.27,3.82a17.82,17.82,0,0,0,2.28,1.43,16,16,0,0,0,3,1.22,12.74,12.74,0,0,0,3.27.57,9.76,9.76,0,0,1-3.41.09,13.47,13.47,0,0,1-3.34-.92,16,16,0,0,1-3.87-2.3,62.29,62.29,0,0,1-6.29-.11,14.93,14.93,0,0,0,1.14,1.11,13.09,13.09,0,0,0,2.74,1.89,9.73,9.73,0,0,1-3.14-1.36,13.55,13.55,0,0,1-2.18-1.76,32.33,32.33,0,0,1-11-2.69c-8.36-4.19-13.7-10-17.57-4.11,0,0,6.92,15.43,19.61,22.23a15.24,15.24,0,0,0,2.65-1.88,6.85,6.85,0,0,1-.86,1.51,9.09,9.09,0,0,1-.73.91,40,40,0,0,0,8.32,3,21.94,21.94,0,0,0,4.36-1,18.59,18.59,0,0,0,2.91-1.34,14.88,14.88,0,0,0,2.71-1.92,7.57,7.57,0,0,1-.85,1.52,10.35,10.35,0,0,1-1.15,1.33,12.4,12.4,0,0,1-2.85,2.11l-.33.17a45.21,45.21,0,0,0,15.48-.95,19.49,19.49,0,0,0,2.86-2,18.63,18.63,0,0,0,2.28-2.25,15.3,15.3,0,0,0,1.89-2.74,7.27,7.27,0,0,1-.28,1.72,10.83,10.83,0,0,1-.62,1.64,11.63,11.63,0,0,1-1.34,2.21,36,36,0,0,0,12.39-7.24c0-.26,0-.52,0-.78a15,15,0,0,0-.34-3.3,7,7,0,0,1,.9,1.48,11.07,11.07,0,0,1,.55,1.49c2.86-3,4.49-6.41,4.4-9.75A55.39,55.39,0,0,1,667.5,986.25Z" transform="translate(0.47 -939.74)"/>
  </g>
  <path class="cls-2" d="M567.42,994.27c4.31,1.45,8.57,2.9,13.56,2.23,11.42,4.36,20,1.58,34.17-4L606,998.83c6.38-.68,10.64-2.08,14.88-6.32,0,1.43,0,1.43.75,2.16l.65-3.56,2.88,2.88c-1.17-3.48,1-3.66,1.41-5.51-21.38,6.29-41.07,3.53-62.47-7.59a1,1,0,0,1-.5-1.35,1,1,0,0,1,1.36-.41c22.55,10.08,42.19,10.43,58,6.32-1.35-1.86-1.68-4.89-4.28-6.49l1.45,4.31-5.74-5.74a43.14,43.14,0,0,1,2.91,8.57c-5.74-7.19-10.05-11.5-18.62-14.41l3.61,6.47c-3.25-3.26-7.69-4.59-11.67-6.62a19.17,19.17,0,0,1,3.81,4.41c-5.69-1.48-10-4.33-15.69-3-5.71,0-12.83-1.56-17.06,4.13-2.33,5.49,3.68,16.41,16.48,15.08C576,994.32,571,993.57,567.42,994.27Zm23.13-22.73a5.05,5.05,0,0,0-1.21-.6ZM564.46,980c26.49,13.75,50,14.63,77.68,1.3l-3.56-.75C620.81,989.68,595.21,993.74,564.46,980Z" transform="translate(0.47 -939.74)"/>
  <g>
    <path class="cls-1" d="M216.35,986.72s0,0,0,0Z" transform="translate(0.47 -939.74)"/>
    <path class="cls-1" d="M224.45,979.29c-2.38-8.19-10.91-11.23-20.57-10.83a21.89,21.89,0,0,1,11,9.1l.19.08c3,1.06,5.5,4.87,5.41,4.87L220,982a22.18,22.18,0,0,0-2.37-2.18,6.83,6.83,0,0,0-1.28-.86c-.62-.28-.81,0-1.11.49-.12.21-.33.2-.56.13-.39-.12-.84-.31-1,0a.66.66,0,0,0-.09.39.73.73,0,0,1,.13-.36c.17-.21.55,0,1,.15a.6.6,0,0,0,.77-.16c.13-.22.24-.39.45-.35,1.76,1,.46.91.68,1.4-1.32-.29-2.53.31-3.35.44a4,4,0,0,1-1.69,0,3.58,3.58,0,0,0,1.71.11c.92-.09,2.2-.64,3.47-.25a5.7,5.7,0,0,1,2.16,1.52,3.5,3.5,0,0,0,1.61,1.21,2.35,2.35,0,0,1-1.46-.78,3.48,3.48,0,0,0-1.78-1l-.17-.05a0,0,0,0,0,0,0h0a5.77,5.77,0,0,0,.9.51,1.26,1.26,0,0,1,.62.59,1.83,1.83,0,0,0-.62-.39,2.73,2.73,0,0,1-.76-.28s0,0,0,0a6.65,6.65,0,0,0-2-.57,2,2,0,0,0-1.14.19,2.06,2.06,0,0,1,1.12,0,8.42,8.42,0,0,1,2.14.81s0,.07,0,.11a2.85,2.85,0,0,0-2.28-.54,2.41,2.41,0,0,0-1,.51,2.61,2.61,0,0,1,1-.36,2.73,2.73,0,0,1,1.56.29,2.44,2.44,0,0,1,.75.53c.17.18.17.44.31.63a3.28,3.28,0,0,0-.43-.51,1.75,1.75,0,0,0-.65-.42,2,2,0,0,1,.55.52,1.48,1.48,0,0,1,.21.32,6.41,6.41,0,0,0,.45.7c.17.24.42.21.67.24a1.15,1.15,0,0,1,.67.28c.47.42.63,1,.9,1.1,0,0-.2,0-.49-.28s-.56-.68-1-.73a.8.8,0,0,1-.59-.39l0,.08a1.12,1.12,0,0,0,.59.56c.59.29.51.83.85,1.08a1.87,1.87,0,0,0,.58.31,1,1,0,0,1-.76-.2,5.75,5.75,0,0,0-1-.86c-.21-.09-.45-.19-.72-.28a3.73,3.73,0,0,1-2.11-1,.6.6,0,0,1,0-.86.65.65,0,0,0-.17.94,3.47,3.47,0,0,0,2.16,1.22,4.56,4.56,0,0,1,.75.28c-.5,0-1.08.12-1.76.21a6.91,6.91,0,0,1-3.68-.65c-.39-.29-.71-.58-.76-.84a.25.25,0,0,1,.29-.17.27.27,0,0,0-.34.18,2,2,0,0,0,.71.94,6.4,6.4,0,0,0,3.8.83c.78-.1,1.42-.2,1.93-.25a1.88,1.88,0,0,1,.76.48,3.8,3.8,0,0,0-.65,0,3.21,3.21,0,0,0-.46.1,2.24,2.24,0,0,1-1.72.06.91.91,0,0,0,.42.29,2.62,2.62,0,0,0,1.37-.07l.45-.1v0a1.94,1.94,0,0,1,.83.11c.37.1.49,0,.49,0a.47.47,0,0,1-.45.15.62.62,0,0,0-.64.18c-.09.14.07.56,0,.61a2.5,2.5,0,0,1-.58.43c-.8.33-1.81.36-2.24.92a1.54,1.54,0,0,0-.33,1,1.55,1.55,0,0,1,.43-.86c.43-.46,1.33-.39,2.26-.77a2.47,2.47,0,0,0,.53-.37c.15.73.28,1.5.4,2.28a28,28,0,0,1-2.51,5.06c-.5.79-1.33,2.09-.93,3.06a4.7,4.7,0,0,0,.36.62l1.77-3.05a29.58,29.58,0,0,0,2.55-6.21c.29-.46.62-1,1-1.6,0,.29,0,.63.08,1a3.34,3.34,0,0,1-.37,1.13.87.87,0,0,0-.29.1.82.82,0,0,1,.26-.05,3.52,3.52,0,0,0-.37,1,1,1,0,0,0,.22.93,1,1,0,0,1-.07-.89,4.56,4.56,0,0,1,.52-1l.47,0a1.23,1.23,0,0,0,.91-.74,1.67,1.67,0,0,0-.22-1.42.75.75,0,0,1-.07-.12,1.41,1.41,0,0,0,.32-.26c.42-.4.29-1.19,0-1.85l.15,0c.47-.07.79-.56,1-1.12a2.46,2.46,0,0,0,1.76-1.29c.53-2.17,1.73-1.73,1.61-1.93,0,0-.19-.08-.63,0s-.93.85-1.25,1.76a2.38,2.38,0,0,1-1.44,1.2,4.53,4.53,0,0,0,.08-.49,4.26,4.26,0,0,1,.74-2c0-.06-.53.13-.85,1.13v-.18a5.28,5.28,0,0,0,0-.56,12.34,12.34,0,0,0,.35-1.73,5,5,0,0,1,2.43-1.48c.61-.28.74-.55.72-.56s-.2.16-.8.37a5.16,5.16,0,0,0-2.3,1.17A7.4,7.4,0,0,0,224.45,979.29Zm-6.33,15.59-1.84,3-.22-.32s.1-.11,1.84-2.9a21.41,21.41,0,0,0,1.58-3.18l0,.17.3-.42A30.06,30.06,0,0,1,218.12,994.88Zm5.09-9.72.27,0a1.54,1.54,0,0,1-.45.41Zm-.54,1.19,0,0-.05,0Zm-.7,4.15-.39.06a2.89,2.89,0,0,0,.33-1c-.07-.66-.1-1.14-.11-1.5l.29-.51a2,2,0,0,0,.25,1c-.07,0-.11.06-.1.07s0,0,.11,0l.07.11A1.17,1.17,0,0,1,222,990.5Zm.86-2.49a1.33,1.33,0,0,1-.25.27c-.37-.76-.24-1.29,0-1.56l.15-.18C223,987.12,223.09,987.67,222.83,988Zm.23-1.92-.16,0-.06-.13c0-.11.09-.21.14-.32a1.53,1.53,0,0,0,.67-.52h.11A1.19,1.19,0,0,1,223.06,986.09Zm.74-1.11h0l0-.11A.3.3,0,0,1,223.8,985Zm-.22,0h0a1.45,1.45,0,0,1-.29,0c.21-.5.41-1,.58-1.54A3.22,3.22,0,0,1,223.58,985Z" transform="translate(0.47 -939.74)"/>
    <path class="cls-1" d="M170.63,964.56a23.77,23.77,0,0,0-.91,9.29c.13,1.37.2,3.93,1.62,4.71s4-.77,5.15-1.67a39,39,0,0,1,5.84-3.84,40.06,40.06,0,0,1,8-11.28s-4.94,7-6.3,10.39a14.36,14.36,0,0,0,5.2-5.07c1.43-2.55,1.84-4.51,4.24-6.41a10.08,10.08,0,0,0-2.7,4.64,10.85,10.85,0,0,1-3.89,5.25,28.68,28.68,0,0,1-2.8,1.56c1.15-.56,2.34-1.08,3.55-1.56,1.73-.83,4.24-2.11,5.29-4.79,1.45-3.72,3.26-6.67,5.17-7.88l.11-.07a11,11,0,0,0-3.23,4.7c-1,2.76-1.47,5.26-3,6.56,13.8-4.12,29.38-2.73,32.58,9l-.21-2.8c-.61-4.22-2.82-8.57-5-12.2l0,0a27.52,27.52,0,0,0-3.22-2.74c-10.28-7.77-23.27-5.87-30.21-2-7.44,3.85-9.44,9.15-9.49,9-.13.11,1.75-5.38,9.26-9.41,7-4.08,20.29-6.13,30.84,1.84.43.3.85.63,1.26,1a38.59,38.59,0,0,0-8.46-8.1c-7.19-5-17.1-7.81-25.31-3.64a26.45,26.45,0,0,0-12.71,13.72,13,13,0,0,1,6.46-2.44A11,11,0,0,0,170.63,964.56Z" transform="translate(0.47 -939.74)"/>
  </g>
</svg>
