<svg id="Layer_1" data-name="Layer 1" xmlns="http://www.w3.org/2000/svg" width="115.36" height="27.22" viewBox="0 0 115.36 27.22">
  <defs>
    <style>
      .cls-1 {
        fill: #3e8c44;
      }
    </style>
  </defs>
  <title>Untitled-3</title>
  <path class="cls-1" d="M160.54,90.39a.7.7,0,0,0-.67-.16c-.74.26-3.86,1.49-4.71,1.74-1.17.45-3.25,1.29-3.38,1.33s0,.24.12.23a24.81,24.81,0,0,0,2.89-1c.38.27-3.58,1.55-3.58,1.55s-4.3,1.78-4.2,1.44c.64-.23,3.53-1.42,4.16-1.7a.85.85,0,0,0,.37-.23c0-.1-.08-.16-.17-.15-1,.36-14,5.29-14.86,5.66a3.19,3.19,0,0,1-1.34.1A1.54,1.54,0,0,0,135,99c-.12,0-.27,0-.34-.14s-.08-.31-.11-.47c-.34-.12-.78-.07-1-.42a2.73,2.73,0,0,1,.12-1.33.25.25,0,0,1,0-.07s0,0,0,0l0-.06a.38.38,0,0,1,.09-.15A2.81,2.81,0,0,1,135.47,95c-.33-.24-1.56.07-2.41.34-.51.16-1,.43-1.48.54a2.53,2.53,0,0,1,.93-.73,5.8,5.8,0,0,1,2.12-.53,5.61,5.61,0,0,0-2,.21,7.13,7.13,0,0,0-2.95,1.71,7.31,7.31,0,0,0-1.89,2.86,3.83,3.83,0,0,0-.09,2.43,3.63,3.63,0,0,1-1.55-2.71,4.75,4.75,0,0,1-.17-1.28c0-.44,0-.88,0-1.32a5.42,5.42,0,0,1,0-.57,22.34,22.34,0,0,1,0-2.24,5.12,5.12,0,0,1,.5-2.17c-.23.09-.3.37-.39.6a11.26,11.26,0,0,0-.43,3.13,2,2,0,0,1-.09.59,9,9,0,0,0-.34-1.8,2.3,2.3,0,0,1,.06-1.75,2.13,2.13,0,0,1,.67-.6,1.62,1.62,0,0,0-1,1.39c0,.79.27,1.74.34,2.52.17,1.31-.15.71-.18,2a10.12,10.12,0,0,0,.22,3.11,4.63,4.63,0,0,0,.75,1.36,7.23,7.23,0,0,1-2.92-1.71,14.56,14.56,0,0,0-2.81-2.17A24.58,24.58,0,0,0,117,97c-.64-.22-1.3-.37-1.94-.61-.9-.26-1.75-.69-2.66-.9a43.43,43.43,0,0,0-5-1.27c-1-.09-2-.36-3-.41-1.52-.12-3-.83-4.51-.82a10.11,10.11,0,0,0-2.27.08,6.22,6.22,0,0,1,4,1.17A13.29,13.29,0,0,1,105.58,98a41.46,41.46,0,0,1,2.16,3.86c-.44-.35-.8-.8-1.26-1.11-.9-.64-1.72-1.4-2.57-2.12a27.3,27.3,0,0,0-5-3.47c-.78-.43-1.59-.82-2.38-1.23a8.1,8.1,0,0,0-1.57-.82c-.8-.3-1.6-.6-2.42-.84a10.91,10.91,0,0,0-2.68-.39,3.11,3.11,0,0,1-1.69-.46c-.79-.6-1.86-.73-2.47-1.58a11.08,11.08,0,0,0-2.38-2.45,19.9,19.9,0,0,1,2.09,4.71,6.29,6.29,0,0,0,.78,1.5c.46.82,1,1.59,1.41,2.4-.32-.39-.55-.85-.83-1.27a18,18,0,0,0-1.91-2.51,11.2,11.2,0,0,0-2.42-2,21.34,21.34,0,0,1,3.08,3.35,3.87,3.87,0,0,1,.71,1,7.85,7.85,0,0,1-.73-.79,15.71,15.71,0,0,0-2.18-1.9c-.91-.69-1.54,1.62-2.49,1a3.3,3.3,0,0,0-1.66-.59,7.89,7.89,0,0,1-1.37-.17c-.53,0-1-.49-1.51-.47a1,1,0,0,1-.15.37,2.52,2.52,0,0,1-1.23-.23,56.57,56.57,0,0,1-5.69-.64c-.35-.14-.7.08-1,.15s-1,0-1.44,0a14.92,14.92,0,0,1-3,.15A7,7,0,0,1,66,93a9,9,0,0,1,1.88,1.82,29.36,29.36,0,0,1,2.33,4.74.78.78,0,0,1,0,.14,5.7,5.7,0,0,0-.69-1.13,13.71,13.71,0,0,0-1.75-2.18,19.84,19.84,0,0,0-2.24-2.07c-.91-.62-1.94-.91-2.92-1.47a3.19,3.19,0,0,0-2.39-.47,4.69,4.69,0,0,1,3.06,2.43,16.73,16.73,0,0,0-1.84-.39c-.43-.09-1.9-.13-5.77-2.13-.24.13,2.22,1.56,3.42,2.39A49.52,49.52,0,0,1,45.4,88.28c9.83,11.89,14,10.56,14,10.56l-2,.86c1.27.8,2.77,1.67,4.36,2.55,0,0,0,0,0,0a11.71,11.71,0,0,0,1.25,1c.86.58,1.58,1.37,2.49,1.87a15.28,15.28,0,0,1,1.42,1c.23.13.18.51.42.64.43.28.93.43,1.37.72a27.6,27.6,0,0,0,2.63,1.26c1,.28,1.91.89,2.91,1.23a15.09,15.09,0,0,1,1.81.56,3.22,3.22,0,0,0,1.47.38c.32-.06.57.19.85.27s.43,0,.64,0a17.08,17.08,0,0,0,1.67.54,6.08,6.08,0,0,1,1.2.1c-.15.11-.31.2-.46.32a10.32,10.32,0,0,1,1.35-.09c.16.12.29.26.45.37a8.87,8.87,0,0,1,1,0c.77,0,1.54-.09,2.32,0-.55.47-1.31.26-1.94.52.23,0,.45,0,.68-.06s.17.24.31.28.56,0,.83,0,.39.2.6.26c.43,0,.86-.08,1.28,0a8.25,8.25,0,0,0,2.53.06,17.24,17.24,0,0,0,2.78-.06,3.42,3.42,0,0,1,1.9-.08c.55.07,1.06.29,1.61.32.39,0,.78.1,1.18,0a9.22,9.22,0,0,1,1.82,0,7.41,7.41,0,0,1,1.49,0c.55,0,1.11-.06,1.66,0a2.55,2.55,0,0,0,1.1,0,5.52,5.52,0,0,1,1.28-.14c.95-.16,1.89-.42,2.85-.49a5.38,5.38,0,0,1,1.38-.17c1.64-.37,3.32-.54,4.93-1a10.39,10.39,0,0,0,3-1.54,6.47,6.47,0,0,1,1-.61,15.78,15.78,0,0,0,1.48-1,10.19,10.19,0,0,0,.17,2.14,4,4,0,0,1-.1,2l.21-.22a11.89,11.89,0,0,0,.08,2,15.72,15.72,0,0,0,.62-3.35,4.88,4.88,0,0,0,.32,2c.53-1,.3-2.32,1.08-3.18s1.53-1.37,2.24-2.15l.15.9.12-.42c.08.44.17.88.22,1.33a4.84,4.84,0,0,0,.81,1.16c-.11-.39-.43-.7-.42-1.12s-.23-.65-.17-1a1.77,1.77,0,0,1,.36-.66,1.63,1.63,0,0,0,.45,1.2c.14-.12.14-.34.2-.51a4.32,4.32,0,0,1,.89-2c.52-.52,1-1,1.53-1.57-.15,1.33-1.21,2.26-1.58,3.5.29-.34.59-.68.9-1a7.57,7.57,0,0,1,1.25-.68c.09.13.14.37.33.33s.37-.17.5-.34a3.6,3.6,0,0,1,.5-.53,3.8,3.8,0,0,1,.53-.46c.12-.07.24-.12.37-.18l.17-.1c.08,0,.19,0,.28-.07a2.83,2.83,0,0,0,0,.29,2.67,2.67,0,0,0,.08.48,3.72,3.72,0,0,0,.2.59,1.14,1.14,0,0,0,.1.19.41.41,0,0,1,.05.09,1.35,1.35,0,0,1,0-.53,2.63,2.63,0,0,1,.14-.5c.07-.15.17-.26.24-.41s.1-.29.23-.31a.33.33,0,0,1,.22.09.94.94,0,0,0,.22.12,3.36,3.36,0,0,1,1.11-1.36c.33-.21.55-.57.86-.81a3.82,3.82,0,0,0,1.38-.24,2.65,2.65,0,0,1-.39.79,6.84,6.84,0,0,0-.36,1.82,13,13,0,0,1,.74-2.09,3.64,3.64,0,0,1,1.42-1,3.3,3.3,0,0,0,1.41-1.36c.21-.34.37-.79.76-.92,1.06-.43,2.14-.81,3.16-1.34,1.24-.65,5.19-2.51,5.9-2.81.45-.2.91-.35,1.35-.58s3.34-1.39,4.27-1.74c.37-.15,3.27-1.45,3.69-1.6a2.2,2.2,0,0,0,1.36-.94,1.49,1.49,0,0,0,.15-.74A.75.75,0,0,0,160.54,90.39ZM123,104.7l-2,.36-2.14.39c-1.85.35-3.19.53-5,.74-2.25.27-4.81.53-7.07.66q-1.16.08-2.31.09c-2.91,0-5.82,0-8.72-.25a78.75,78.75,0,0,1-8.78-1c-3.15-.59-6.31-1.1-9.46-1.72-.91-.18-1.82-.36-2.73-.57A90.44,90.44,0,0,1,66,100.94l-2-.67c3.88,1.13,7.79,2.06,11.71,2.86,3.2.66,6.41,1.18,9.62,1.64,4.34.63,8.68,1.15,13,1.37a98.73,98.73,0,0,0,13.32-.33c1.27-.1,2.54-.23,3.81-.37,2.65-.31,4.88-.61,7.52-1,.85-.11,4-.52,4.85-.65Zm7.19-5.92a2.9,2.9,0,0,0-.3,1.78,2.65,2.65,0,0,1-.33-1.45,3,3,0,0,1,2.19-2.45A3.9,3.9,0,0,0,130.14,98.78Z" transform="translate(-45.4 -87.43)"/>
</svg>
