<?xml version="1.0" encoding="utf-8"?>
<!-- Generator: Adobe Illustrator 22.1.0, SVG Export Plug-In . SVG Version: 6.00 Build 0)  -->
<svg version="1.1" id="primary_logo" xmlns="http://www.w3.org/2000/svg" xmlns:xlink="http://www.w3.org/1999/xlink" x="0px"
	 y="0px" viewBox="0 0 332.7 182.6" style="enable-background:new 0 0 332.7 182.6;" xml:space="preserve">
<style type="text/css">
	.st0{fill:#862165;}
</style>
<path class="st0" d="M233.3,60.6l18.9-3.4v72.4h-18.9V60.6z M260.9,60.6v69.1h18.9V57.2L260.9,60.6z M206.4,129.7h18.9v-53h-18.9
	V129.7z M81.7,84.2c-2.4-0.2-7.9-0.5-7.9-5.5c0-6,8-6,10.9-6c5.2,0,12,1.5,16.9,3c0,0,2.7,1,5,1.9l0.2,0.1v-0.2V61.2l-0.3-0.1
	c-5.7-2-12.4-3.9-24.7-3.9c-21.3,0-28.8,12.4-28.8,23c0,6.1,2.6,20.5,27,22.2c2.1,0.1,7.5,0.4,7.5,5.6c0,4.2-4.5,6.7-12,6.7
	c-8.3,0-16.3-2.1-21.2-4.1v16.9c7.3,1.9,15.5,2.9,25.2,2.9c20.8,0,30.1-11.7,30.1-23.4C109.6,93.9,99.2,85.3,81.7,84.2z M195.8,75.9
	c-17.4,0.6-26.3,8.4-26.3,23.9v29.8h19v-24.3c0-9.3,1.2-13.3,12.3-13.7V76.2C198.9,75.8,195.8,75.9,195.8,75.9z M144.6,76.6
	c-0.4,1.1-3.4,9.6-10.8,18.4V57.2l-19.5,3.9v68.6h19.5v-21.2c5.6,8.5,8.4,21.2,8.4,21.2h23.3c-2.3-9.6-12.4-27.3-12.4-27.3
	c9.1-11.5,13-23.7,13.7-25.8H144.6z M215.9,71.6c5.1,0,9.3-4.2,9.3-9.3c0-5.1-4.2-9.3-9.3-9.3c-5.1,0-9.3,4.2-9.3,9.3
	C206.6,67.4,210.7,71.6,215.9,71.6z"/>
</svg>
