<svg id="Layer_1" data-name="Layer 1" xmlns="http://www.w3.org/2000/svg" width="135.11" height="64.65" viewBox="0 0 135.11 64.65">
  <defs>
    <style>
      .cls-1 {
        fill: #3e8c44;
      }
    </style>
  </defs>
  <title>Untitled-3</title>
  <g>
    <path class="cls-1" d="M109.87,112.68a63.12,63.12,0,0,1-6.45,1c2.19-.09,4.37-.28,6.52-.58a69.44,69.44,0,0,0,14.94-3.85A86.66,86.66,0,0,0,151.27,93a111.88,111.88,0,0,0,11-11.11c1.72-2,3.37-4,4.91-6.11.8-1.08,1.58-2.15,2.3-3.2s1.48-2.2,2.18-3.37a2.6,2.6,0,1,0-4.47-2.67l-.08.13s0,0,0,0c-.44.86-1,1.91-1.79,3.17-.61,1-1.29,2.11-2,3.18-1.35,2.08-2.81,4.15-4.33,6.16A109.16,109.16,0,0,1,149,90.59,84.61,84.61,0,0,1,124.37,108,68,68,0,0,1,109.87,112.68Z" transform="translate(-36.89 -65.26)"/>
    <path class="cls-1" d="M125.32,110.39a69.85,69.85,0,0,1-15.21,3.92,67.41,67.41,0,0,1-9,.65q-3.33,0-6.64-.27A83.35,83.35,0,0,1,65,106a82,82,0,0,0,29.61,6.76c.76,0,1.52,0,2.27,0a65.42,65.42,0,0,0,12.74-1.33,67.34,67.34,0,0,0,14.24-4.62,83,83,0,0,0,23.79-16.64c-3.27-1.91-11-4.67-23.23,1.49-7.29,3.68-17.09,6-26.92,6.94a28.25,28.25,0,0,0,3.66,2.11,26.23,26.23,0,0,0,4.82,1.77,20.73,20.73,0,0,0,5.17.71,15.26,15.26,0,0,1-5.35.32,21,21,0,0,1-5.29-1.26,25.28,25.28,0,0,1-6.2-3.4c-3.36.22-6.69.27-9.89.16a24.73,24.73,0,0,0,1.86,1.68,20.44,20.44,0,0,0,4.39,2.82,15.29,15.29,0,0,1-5-2,21.07,21.07,0,0,1-3.52-2.65c-6.9-.41-13.07-1.62-17.46-3.64-13.35-6.13-22.06-15-27.81-5.51,0,0,11.69,23.86,32,33.86a24.14,24.14,0,0,0,4.06-3.1A11,11,0,0,1,71.67,123a15.49,15.49,0,0,1-1.1,1.46,62.18,62.18,0,0,0,13.22,4.19,33.32,33.32,0,0,0,6.79-1.86,28.74,28.74,0,0,0,4.51-2.25,23.73,23.73,0,0,0,4.15-3.16A10.33,10.33,0,0,1,98,123.78a15.53,15.53,0,0,1-1.72,2.16,20.18,20.18,0,0,1-4.37,3.47c-.16.1-.33.19-.5.28a71,71,0,0,0,24.25-2.32,32.56,32.56,0,0,0,4.39-3.28,29.29,29.29,0,0,0,3.46-3.66,24.13,24.13,0,0,0,2.82-4.4,11.32,11.32,0,0,1-.35,2.71,17.16,17.16,0,0,1-.88,2.62,19.49,19.49,0,0,1-2,3.53,56.75,56.75,0,0,0,19.07-12c0-.41,0-.82,0-1.23a23.94,23.94,0,0,0-.73-5.17,10.83,10.83,0,0,1,1.5,2.28,16,16,0,0,1,1,2.31c4.33-4.92,6.7-10.3,6.38-15.55A87.15,87.15,0,0,1,125.32,110.39Z" transform="translate(-36.89 -65.26)"/>
  </g>
</svg>
